# Created by FreeCAD <https://www.freecad.org>
v -472.575836 331.497681 -18.500284
v -471.436218 326.320984 -20.544790
v -469.118011 328.175537 -18.717113
v -474.337646 330.088196 -19.889318
v -471.146729 333.226776 -17.090385
v -467.237610 330.450714 -16.861986
v -465.852081 333.077301 -15.035774
v -476.378632 329.041199 -21.215284
v -477.092957 324.084503 -23.898180
v -474.121704 324.943359 -22.289484
v -470.093719 335.223022 -15.702465
v -478.636780 328.388489 -22.437893
v -480.259674 323.770569 -25.322001
v -469.448853 337.425690 -14.378691
v -465.003571 335.975586 -13.293966
v -481.043488 328.149872 -23.519997
v -469.231689 339.767883 -13.159286
v -464.717834 339.057434 -11.689487
v -483.525604 328.332642 -24.428717
v -483.525604 324.011047 -26.517685
v -469.448853 342.178467 -12.081303
v -465.003571 342.229218 -10.271088
v -486.007690 328.931244 -25.136442
v -486.791534 324.798676 -27.448902
v -470.093719 344.584137 -11.177493
v -465.852081 345.394592 -9.081864
v -488.414398 329.927460 -25.621666
v -489.958221 326.109467 -28.087355
v -471.146729 346.911835 -10.475321
v -467.237610 348.457367 -8.157953
v -490.672546 331.291016 -25.869650
v -492.929474 327.903625 -28.413649
v -472.575836 349.090851 -9.996119
v -469.118011 351.324463 -7.527424
v -492.713531 332.980499 -25.872854
v -495.614990 330.126648 -28.417866
v -471.436218 353.908783 -7.209438
v -474.337646 351.054932 -9.754450
v -497.933167 332.710968 -28.099878
v -494.475342 334.944580 -25.631184
v -474.121704 356.131805 -7.213655
v -476.378632 352.744415 -9.757654
v -499.813568 335.578064 -27.469351
v -495.904449 337.123596 -25.151983
v -496.957458 339.451294 -24.449810
v -477.092957 357.925964 -7.539948
v -478.636780 354.107971 -10.005637
v -501.199097 338.640839 -26.545439
v -480.259674 359.236755 -8.178402
v -481.043488 355.104187 -10.490862
v -502.047607 341.806213 -25.356216
v -497.602325 341.856964 -23.546001
v -483.525604 360.024384 -9.109618
v -486.007690 355.885559 -12.107306
v -483.525604 355.702789 -11.198586
v -502.333344 344.977997 -23.937817
v -497.819489 344.267548 -22.468018
v -486.791534 360.264862 -10.305303
v -502.047607 348.059845 -22.333338
v -497.602325 346.609741 -21.248613
v -489.958221 359.950928 -11.729123
v -488.414398 355.646942 -13.189410
v -490.672546 354.994232 -14.412020
v -501.199097 350.958130 -20.591530
v -496.957458 348.812408 -19.924839
v -492.929474 359.092072 -13.337820
v -499.813568 353.584747 -18.765318
v -495.904449 350.808655 -18.536917
v -495.614990 357.714447 -15.082513
v -492.713531 353.947235 -15.737986
v -497.933167 355.859894 -16.910189
v -494.475342 352.537781 -17.127020
v -467.204926 320.827118 -21.500690
v -464.075378 323.330780 -19.033327
v -461.536804 326.402252 -16.528904
v -459.666351 329.948181 -14.063517
v -470.830353 318.967316 -23.856024
v -474.841553 317.807892 -26.027765
v -458.520874 333.860840 -11.712076
v -479.116577 317.384064 -27.949924
v -458.135132 338.021332 -9.546029
v -483.525604 317.708740 -29.564096
v -458.520874 342.303253 -7.631190
v -487.934601 318.772003 -30.821239
v -492.209625 320.541595 -31.683151
v -459.666351 346.576508 -6.025739
v -461.536804 350.711243 -4.778458
v -496.220825 322.963715 -32.123646
v -464.075378 354.581818 -3.927245
v -499.846252 325.964783 -32.129341
v -467.204926 358.070648 -3.497963
v -502.975800 329.453613 -31.700058
v -470.830353 361.071716 -3.503657
v -505.514374 333.324188 -30.848845
v -474.841553 363.493835 -3.944152
v -507.384827 337.458923 -29.601564
v -479.116577 365.263428 -4.806065
v -508.530304 341.732178 -27.996115
v -508.916046 346.014099 -26.081274
v -483.525604 366.326721 -6.063207
v -508.530304 350.174591 -23.915228
v -487.934601 366.651367 -7.677380
v -507.384827 354.087250 -21.563787
v -492.209625 366.227539 -9.599539
v -496.220825 365.068115 -11.771279
v -505.514374 357.633179 -19.098400
v -499.846252 363.208313 -14.126614
v -502.975800 360.704651 -16.593977
v -474.458557 330.245148 -19.862007
v -472.719910 331.636078 -18.491249
v -471.309601 333.342468 -17.099903
v -476.472687 329.211945 -21.170527
v -470.270477 335.312408 -15.730244
v -478.701111 328.567810 -22.377048
v -469.634094 337.486115 -14.423888
v -481.076141 328.332367 -23.444914
v -469.419769 339.797485 -13.220529
v -483.525604 328.512726 -24.341677
v -469.634094 342.176361 -12.156729
v -485.975037 329.103424 -25.040089
v -470.270477 344.550385 -11.264812
v -488.350067 330.086517 -25.518930
v -471.309601 346.847443 -10.571877
v -490.578491 331.432159 -25.763649
v -472.719910 348.997772 -10.098981
v -492.592621 333.099426 -25.766811
v -474.458557 350.936005 -9.860492
v -494.331268 335.037659 -25.528322
v -495.741577 337.187988 -25.055426
v -476.472687 352.603271 -9.863654
v -496.780701 339.485046 -24.362492
v -478.701111 353.948914 -10.108374
v -481.076141 354.932007 -10.587214
v -497.417114 341.859100 -23.470575
v -483.525604 355.522705 -11.285626
v -497.631409 344.237946 -22.406775
v -485.975037 355.703064 -12.182389
v -497.417114 346.549316 -21.203415
v -488.350067 355.467621 -13.250256
v -496.780701 348.723022 -19.897060
v -495.741577 350.692993 -18.527401
v -490.578491 354.823486 -14.456778
v -492.592621 353.790283 -15.765297
v -494.331268 352.399353 -17.136055
v -479.444336 371.237793 -16.223146
v -483.853333 371.562469 -17.837320
v -488.128357 371.138641 -19.759480
v -492.139557 369.979218 -21.931219
v -495.764984 368.119415 -24.286554
v -498.894531 365.615753 -26.753918
v -501.433105 362.544281 -29.258341
v -503.303558 358.998352 -31.723726
v -504.449036 355.085693 -34.075169
v -504.834778 350.925201 -36.241215
v -504.449036 346.643280 -38.156055
v -503.303558 342.370026 -39.761505
v -501.433105 338.235291 -41.008785
v -498.894531 334.364716 -41.860001
v -495.764984 330.875885 -42.289280
v -492.139557 327.874817 -42.283588
v -488.128357 325.452667 -41.843094
v -483.853333 323.683105 -40.981178
v -479.444336 322.619812 -39.724037
v -475.035309 322.295166 -38.109863
v -470.760284 322.718994 -36.187706
v -466.749084 323.878418 -34.015965
v -463.123657 325.738220 -31.660629
v -459.994110 328.241882 -29.193266
v -457.455536 331.313354 -26.688843
v -455.585114 334.859283 -24.223457
v -454.439606 338.771912 -21.872017
v -454.053864 342.932434 -19.705969
v -454.439606 347.214355 -17.791130
v -455.585114 351.487610 -16.185678
v -457.455536 355.622345 -14.938398
v -459.994110 359.492920 -14.087185
v -463.123657 362.981750 -13.657904
v -466.749084 365.982819 -13.663597
v -470.760284 368.404938 -14.104092
v -475.035309 370.174530 -14.966005
v -467.540619 374.757843 -51.078728
v -469.990082 374.938202 -51.975491
v -472.365112 374.702759 -53.043354
v -474.593536 374.058624 -54.249878
v -476.607666 373.025391 -55.558395
v -478.346313 371.634491 -56.929153
v -479.756622 369.928101 -58.320499
v -480.795746 367.958160 -59.690159
v -481.432129 365.784454 -60.996513
v -481.646454 363.473053 -62.199875
v -481.432129 361.094208 -63.263676
v -480.795746 358.720184 -64.155594
v -479.756622 356.423126 -64.848526
v -478.346313 354.272797 -65.321419
v -476.607666 352.334564 -65.559914
v -474.593536 350.667297 -65.556747
v -472.365112 349.321655 -65.312027
v -469.990082 348.338562 -64.833191
v -467.540619 347.747864 -64.134773
v -465.091187 347.567474 -63.238014
v -462.716156 347.802948 -62.170147
v -460.487732 348.447083 -60.963627
v -458.473602 349.480286 -59.655106
v -456.734955 350.871216 -58.284348
v -455.324646 352.577576 -56.893002
v -454.285492 354.547546 -55.523342
v -453.649109 356.721252 -54.216988
v -453.434814 359.032623 -53.013626
v -453.649109 361.411469 -51.949829
v -454.285492 363.785492 -51.057911
v -455.324646 366.082581 -50.364979
v -456.734955 368.232910 -49.892082
v -458.473602 370.171143 -49.653591
v -460.487732 371.838409 -49.656754
v -462.716156 373.184021 -49.901474
v -465.091187 374.167145 -50.380314
v -465.036743 333.086639 -28.877054
v -467.354950 331.232086 -30.704731
v -463.156342 335.361786 -27.021927
v -470.040436 329.854431 -32.449425
v -461.770813 337.988403 -25.195715
v -473.011688 328.995605 -34.058121
v -460.922302 340.886688 -23.453907
v -476.178406 328.681671 -35.481941
v -460.636566 343.968536 -21.849428
v -479.444336 328.922150 -36.677624
v -460.922302 347.140320 -20.431028
v -482.710266 329.709778 -37.608841
v -461.770813 350.305695 -19.241804
v -485.876953 331.020569 -38.247295
v -463.156342 353.368469 -18.317894
v -488.848206 332.814728 -38.573589
v -465.036743 356.235565 -17.687365
v -491.533722 335.037750 -38.577805
v -467.354950 358.819885 -17.369379
v -493.851898 337.622070 -38.259819
v -470.040436 361.042908 -17.373596
v -495.732300 340.489166 -37.629292
v -473.011688 362.837067 -17.699888
v -497.117828 343.551941 -36.705379
v -476.178406 364.147858 -18.338343
v -479.444336 364.935486 -19.269558
v -497.966339 346.717316 -35.516155
v -498.252075 349.889099 -34.097755
v -497.966339 352.970947 -32.493279
v -482.710266 365.175964 -20.465242
v -485.876953 364.862030 -21.889063
v -497.117828 355.869202 -30.751471
v -488.848206 364.003174 -23.497761
v -495.732300 358.495819 -28.925257
v -493.851898 360.770996 -27.070129
v -491.533722 362.625549 -25.242453
v -455.451233 345.556122 -60.337891
v -453.133057 347.410675 -58.510212
v -451.252655 349.685822 -56.655087
v -458.136749 344.178467 -62.082584
v -449.867126 352.312439 -54.828873
v -449.018616 355.210693 -53.087067
v -461.108002 343.319641 -63.691280
v -464.274689 343.005707 -65.115105
v -448.732880 358.292572 -51.482586
v -467.540619 343.246185 -66.310783
v -449.018616 361.464355 -50.064186
v -470.806549 344.033813 -67.242004
v -449.867126 364.629730 -48.874966
v -473.973267 345.344604 -67.880455
v -451.252655 367.692505 -47.951054
v -476.944489 347.138763 -68.206749
v -479.630005 349.361786 -68.210968
v -453.133057 370.559601 -47.320522
v -455.451233 373.143921 -47.002537
v -481.948212 351.946106 -67.892975
v -458.136749 375.366913 -47.006756
v -483.828613 354.813202 -67.262451
v -461.108002 377.161102 -47.333046
v -485.214142 357.875977 -66.338539
v -464.274689 378.471893 -47.971500
v -486.062653 361.041351 -65.149315
v -467.540619 379.259521 -48.902718
v -486.348389 364.213135 -63.730915
v -486.062653 367.294983 -62.126438
v -470.806549 379.500000 -50.098400
v -485.214142 370.193237 -60.384628
v -473.973267 379.186066 -51.522224
v -476.944489 378.327209 -53.130920
v -483.828613 372.819855 -58.558418
v -479.630005 376.949585 -54.875610
v -481.948212 375.095032 -56.703289
vn -0.340106 -0.409257 0.846662
vn -0.340106 -0.409257 0.846662
vn -0.340103 -0.409259 0.846662
vn -0.340105 -0.409260 0.846661
vn -0.340110 -0.409260 0.846659
vn -0.340102 -0.409258 0.846663
vn -0.340108 -0.409260 0.846660
vn -0.340107 -0.409257 0.846662
vn -0.340106 -0.409252 0.846664
vn -0.340105 -0.409256 0.846663
vn -0.340106 -0.409256 0.846662
vn -0.340108 -0.409259 0.846660
vn -0.340104 -0.409256 0.846663
vn -0.340100 -0.409258 0.846664
vn -0.340104 -0.409258 0.846662
vn -0.340105 -0.409259 0.846661
vn -0.340104 -0.409258 0.846662
vn -0.340105 -0.409259 0.846662
vn -0.340104 -0.409257 0.846663
vn -0.340106 -0.409260 0.846661
vn -0.340108 -0.409256 0.846662
vn -0.340111 -0.409258 0.846660
vn -0.340106 -0.409259 0.846661
vn -0.340105 -0.409258 0.846662
vn -0.340105 -0.409258 0.846662
vn -0.340104 -0.409258 0.846663
vn -0.340104 -0.409261 0.846661
vn -0.340104 -0.409258 0.846662
vn -0.340104 -0.409258 0.846662
vn -0.340104 -0.409258 0.846662
vn -0.340106 -0.409254 0.846663
vn -0.340106 -0.409258 0.846662
vn -0.340106 -0.409258 0.846662
vn -0.340104 -0.409258 0.846662
vn -0.340104 -0.409260 0.846661
vn -0.340108 -0.409259 0.846661
vn -0.340106 -0.409258 0.846662
vn -0.340106 -0.409258 0.846662
vn -0.340109 -0.409257 0.846661
vn -0.340104 -0.409258 0.846662
vn -0.340106 -0.409254 0.846664
vn -0.340106 -0.409257 0.846662
vn -0.340103 -0.409260 0.846662
vn -0.340104 -0.409258 0.846662
vn -0.340104 -0.409258 0.846662
vn -0.340105 -0.409258 0.846662
vn -0.340102 -0.409259 0.846662
vn -0.340104 -0.409259 0.846662
vn -0.340106 -0.409259 0.846661
vn -0.340106 -0.409257 0.846662
vn -0.340108 -0.409258 0.846661
vn -0.340108 -0.409258 0.846661
vn -0.340107 -0.409258 0.846661
vn -0.340104 -0.409257 0.846663
vn -0.340106 -0.409260 0.846661
vn -0.340105 -0.409260 0.846661
vn -0.340105 -0.409259 0.846661
vn -0.340104 -0.409258 0.846662
vn -0.340101 -0.409255 0.846665
vn -0.340107 -0.409257 0.846662
vn -0.340107 -0.409260 0.846660
vn -0.340104 -0.409256 0.846663
vn -0.340108 -0.409259 0.846660
vn -0.340103 -0.409258 0.846663
vn -0.340107 -0.409255 0.846662
vn -0.340104 -0.409254 0.846664
vn -0.340106 -0.409259 0.846661
vn -0.340106 -0.409259 0.846661
vn -0.340108 -0.409260 0.846660
vn -0.340107 -0.409260 0.846660
vn -0.340107 -0.409261 0.846660
vn -0.340104 -0.409259 0.846662
vn -0.340106 -0.409258 0.846662
vn -0.340105 -0.409257 0.846663
vn -0.340105 -0.409258 0.846662
vn -0.340105 -0.409258 0.846662
vn -0.340105 -0.409257 0.846662
vn -0.340107 -0.409257 0.846662
vn -0.340108 -0.409260 0.846660
vn -0.340105 -0.409260 0.846661
vn -0.340105 -0.409258 0.846662
vn -0.340103 -0.409256 0.846664
vn -0.340104 -0.409257 0.846663
vn -0.340106 -0.409259 0.846661
vn -0.340105 -0.409258 0.846662
vn -0.340106 -0.409259 0.846661
vn -0.340106 -0.409258 0.846662
vn -0.340106 -0.409258 0.846661
vn -0.340105 -0.409259 0.846661
vn -0.340105 -0.409259 0.846662
vn -0.340106 -0.409260 0.846661
vn -0.340105 -0.409259 0.846661
vn -0.340105 -0.409258 0.846662
vn -0.340108 -0.409259 0.846660
vn -0.340107 -0.409258 0.846661
vn -0.340106 -0.409257 0.846662
vn -0.340105 -0.409257 0.846662
vn -0.340105 -0.409260 0.846661
vn -0.340105 -0.409258 0.846662
vn -0.340105 -0.409258 0.846662
vn -0.340105 -0.409260 0.846661
vn -0.340104 -0.409260 0.846661
vn -0.340105 -0.409260 0.846661
vn -0.340106 -0.409257 0.846662
vn -0.340107 -0.409258 0.846661
vn -0.340106 -0.409259 0.846661
vn -0.340105 -0.409260 0.846661
vn -0.340105 -0.409258 0.846662
vn -0.340106 -0.409259 0.846661
vn -0.340107 -0.409258 0.846661
vn -0.340108 -0.409256 0.846662
vn -0.340107 -0.409258 0.846661
vn -0.340106 -0.409257 0.846662
vn -0.340105 -0.409260 0.846661
vn -0.340104 -0.409260 0.846661
vn -0.340105 -0.409260 0.846661
vn -0.340105 -0.409258 0.846662
vn -0.340105 -0.409258 0.846662
vn -0.340108 -0.409259 0.846661
vn -0.340102 -0.409258 0.846663
vn -0.340107 -0.409256 0.846662
vn -0.340105 -0.409260 0.846661
vn -0.340106 -0.409257 0.846662
vn -0.340105 -0.409257 0.846663
vn -0.340106 -0.409259 0.846661
vn -0.340106 -0.409258 0.846662
vn -0.340106 -0.409258 0.846662
vn -0.340106 -0.409258 0.846662
vn -0.340105 -0.409258 0.846662
vn -0.340107 -0.409258 0.846661
vn -0.340105 -0.409258 0.846662
vn -0.340106 -0.409259 0.846661
vn -0.340104 -0.409257 0.846663
vn -0.340106 -0.409258 0.846661
vn -0.340103 -0.409256 0.846664
vn -0.340105 -0.409258 0.846662
vn -0.340104 -0.409258 0.846662
vn -0.340105 -0.409261 0.846660
vn -0.340103 -0.409258 0.846663
vn -0.340107 -0.409258 0.846661
vn -0.340107 -0.409257 0.846662
vn -0.340107 -0.409259 0.846661
vn -0.340107 -0.409257 0.846662
vn -0.340105 -0.409257 0.846663
vn -0.340065 -0.409302 0.846657
vn -0.340072 -0.409293 0.846658
vn -0.340156 -0.409222 0.846659
vn -0.340066 -0.409287 0.846663
vn -0.340095 -0.409276 0.846657
vn -0.340076 -0.409309 0.846649
vn -0.340038 -0.409293 0.846672
vn -0.340161 -0.409229 0.846653
vn -0.340095 -0.409281 0.846655
vn -0.340097 -0.409277 0.846656
vn -0.340081 -0.409271 0.846665
vn -0.340036 -0.409286 0.846676
vn -0.340115 -0.409203 0.846685
vn -0.340100 -0.409282 0.846652
vn -0.340080 -0.409265 0.846668
vn -0.340102 -0.409258 0.846663
vn -0.340108 -0.409203 0.846688
vn -0.340108 -0.409224 0.846678
vn -0.340102 -0.409257 0.846664
vn -0.340091 -0.409258 0.846667
vn -0.340103 -0.409225 0.846679
vn -0.340114 -0.409287 0.846644
vn -0.340091 -0.409257 0.846668
vn -0.340102 -0.409259 0.846663
vn -0.340113 -0.409289 0.846644
vn -0.340112 -0.409288 0.846645
vn -0.340102 -0.409260 0.846662
vn -0.340119 -0.409286 0.846643
vn -0.340122 -0.409264 0.846652
vn -0.340096 -0.409233 0.846677
vn -0.340090 -0.409246 0.846674
vn -0.340122 -0.409265 0.846652
vn -0.340073 -0.409220 0.846693
vn -0.340090 -0.409238 0.846678
vn -0.340089 -0.409248 0.846673
vn -0.340064 -0.409224 0.846695
vn -0.340067 -0.409226 0.846693
vn -0.340089 -0.409248 0.846673
vn -0.340088 -0.409248 0.846673
vn -0.340071 -0.409218 0.846695
vn -0.340088 -0.409235 0.846680
vn -0.340127 -0.409264 0.846650
vn -0.340126 -0.409265 0.846650
vn -0.340090 -0.409233 0.846680
vn -0.340125 -0.409287 0.846640
vn -0.340102 -0.409260 0.846662
vn -0.340114 -0.409292 0.846642
vn -0.340111 -0.409285 0.846647
vn -0.340082 -0.409255 0.846673
vn -0.340102 -0.409259 0.846663
vn -0.340105 -0.409287 0.846648
vn -0.340104 -0.409224 0.846679
vn -0.340106 -0.409258 0.846662
vn -0.340081 -0.409258 0.846671
vn -0.340111 -0.409203 0.846686
vn -0.340111 -0.409223 0.846676
vn -0.340133 -0.409254 0.846652
vn -0.340106 -0.409259 0.846661
vn -0.340099 -0.409286 0.846651
vn -0.340115 -0.409203 0.846685
vn -0.340034 -0.409283 0.846678
vn -0.340132 -0.409249 0.846655
vn -0.340040 -0.409298 0.846669
vn -0.340097 -0.409277 0.846656
vn -0.340094 -0.409285 0.846653
vn -0.340096 -0.409259 0.846665
vn -0.340095 -0.409276 0.846657
vn -0.340076 -0.409309 0.846649
vn -0.340064 -0.409302 0.846657
vn -0.340117 -0.409250 0.846661
vn -0.340117 -0.409250 0.846661
vn -0.340099 -0.409263 0.846662
vn -0.081956 0.909808 0.406857
vn -0.081963 0.909807 0.406857
vn -0.243392 0.907964 0.341120
vn -0.397423 0.878533 0.265019
vn -0.243392 0.907964 0.341120
vn -0.397423 0.878533 0.265019
vn -0.539386 0.822406 0.180862
vn -0.664954 0.741294 0.091213
vn -0.539386 0.822406 0.180862
vn -0.664954 0.741294 0.091213
vn -0.770320 0.637656 -0.001209
vn -0.770320 0.637656 -0.001209
vn -0.852280 0.514645 -0.093594
vn -0.852280 0.514645 -0.093594
vn -0.908345 0.375991 -0.183138
vn -0.908345 0.375992 -0.183138
vn -0.936809 0.225921 -0.267112
vn -0.936809 0.225921 -0.267112
vn -0.936809 0.068982 -0.342974
vn -0.936809 0.068981 -0.342974
vn -0.908345 -0.090049 -0.408412
vn -0.908345 -0.090049 -0.408412
vn -0.852280 -0.246352 -0.461444
vn -0.852280 -0.246352 -0.461444
vn -0.770319 -0.395166 -0.500453
vn -0.770319 -0.395165 -0.500453
vn -0.664954 -0.531969 -0.524256
vn -0.664954 -0.531970 -0.524256
vn -0.539385 -0.652611 -0.532130
vn -0.539385 -0.652611 -0.532130
vn -0.397423 -0.753426 -0.523836
vn -0.397427 -0.753425 -0.523835
vn -0.243393 -0.831346 -0.499624
vn -0.243387 -0.831347 -0.499625
vn -0.081958 -0.884007 -0.460233
vn -0.081964 -0.884007 -0.460233
vn 0.081962 -0.909807 -0.406857
vn 0.081956 -0.909808 -0.406858
vn 0.243392 -0.907964 -0.341120
vn 0.243392 -0.907964 -0.341120
vn 0.397423 -0.878533 -0.265019
vn 0.397423 -0.878533 -0.265019
vn 0.539386 -0.822406 -0.180862
vn 0.664954 -0.741294 -0.091213
vn 0.539385 -0.822406 -0.180862
vn 0.664954 -0.741294 -0.091213
vn 0.770320 -0.637656 0.001209
vn 0.770320 -0.637656 0.001209
vn 0.852283 -0.514640 0.093595
vn 0.908344 -0.375997 0.183132
vn 0.852280 -0.514645 0.093594
vn 0.936809 -0.225920 0.267113
vn 0.908345 -0.375992 0.183138
vn 0.936809 -0.225921 0.267112
vn 0.936809 -0.068981 0.342974
vn 0.908344 0.090055 0.408414
vn 0.936809 -0.068981 0.342974
vn 0.908346 0.090050 0.408410
vn 0.852282 0.246347 0.461442
vn 0.770319 0.395166 0.500453
vn 0.852280 0.246353 0.461442
vn 0.770319 0.395166 0.500453
vn 0.664954 0.531969 0.524256
vn 0.664954 0.531969 0.524256
vn 0.539385 0.652611 0.532130
vn 0.539385 0.652611 0.532130
vn 0.397423 0.753426 0.523836
vn 0.397423 0.753426 0.523836
vn 0.243392 0.831345 0.499626
vn 0.243392 0.831345 0.499626
vn 0.081963 0.884006 0.460235
vn 0.081959 0.884008 0.460231
vn 0.081963 -0.909807 -0.406857
vn 0.081962 -0.909807 -0.406857
vn 0.243385 -0.907964 -0.341123
vn 0.243385 -0.907964 -0.341122
vn 0.397429 -0.878531 -0.265016
vn 0.539387 -0.822405 -0.180861
vn 0.397429 -0.878531 -0.265016
vn 0.539380 -0.822409 -0.180865
vn 0.664948 -0.741299 -0.091218
vn 0.664953 -0.741294 -0.091213
vn 0.770324 -0.637652 0.001214
vn 0.770320 -0.637656 0.001209
vn 0.852283 -0.514639 0.093598
vn 0.852280 -0.514644 0.093595
vn 0.908345 -0.375992 0.183137
vn 0.908342 -0.376002 0.183132
vn 0.936808 -0.225928 0.267109
vn 0.936809 -0.225920 0.267113
vn 0.936809 -0.068984 0.342973
vn 0.936808 -0.068974 0.342977
vn 0.908342 0.090060 0.408416
vn 0.908345 0.090052 0.408413
vn 0.852281 0.246348 0.461442
vn 0.852281 0.246349 0.461442
vn 0.770321 0.395162 0.500452
vn 0.770321 0.395163 0.500452
vn 0.664951 0.531973 0.524256
vn 0.664952 0.531972 0.524256
vn 0.539386 0.652610 0.532130
vn 0.539385 0.652611 0.532130
vn 0.397430 0.753422 0.523836
vn 0.397430 0.753422 0.523836
vn 0.243388 0.831347 0.499625
vn 0.243387 0.831347 0.499624
vn 0.081958 0.884007 0.460233
vn 0.081956 0.884008 0.460232
vn -0.081952 0.909807 0.406860
vn -0.081962 0.909807 0.406857
vn -0.243395 0.907963 0.341118
vn -0.243385 0.907965 0.341122
vn -0.397428 0.878531 0.265016
vn -0.397429 0.878531 0.265016
vn -0.539380 0.822409 0.180865
vn -0.664953 0.741294 0.091213
vn -0.539380 0.822409 0.180865
vn -0.664953 0.741294 0.091213
vn -0.770320 0.637657 -0.001210
vn -0.770324 0.637652 -0.001213
vn -0.852279 0.514647 -0.093593
vn -0.852280 0.514644 -0.093595
vn -0.908345 0.375993 -0.183137
vn -0.936809 0.225921 -0.267113
vn -0.908345 0.375993 -0.183137
vn -0.936808 0.225930 -0.267108
vn -0.936809 0.068983 -0.342973
vn -0.908344 -0.090051 -0.408413
vn -0.936808 0.068973 -0.342977
vn -0.852278 -0.246355 -0.461445
vn -0.908344 -0.090051 -0.408413
vn -0.770321 -0.395162 -0.500452
vn -0.852281 -0.246348 -0.461442
vn -0.770321 -0.395162 -0.500452
vn -0.664952 -0.531972 -0.524256
vn -0.664951 -0.531973 -0.524256
vn -0.539386 -0.652610 -0.532130
vn -0.539386 -0.652610 -0.532130
vn -0.397430 -0.753422 -0.523836
vn -0.397423 -0.753427 -0.523835
vn -0.243396 -0.831344 -0.499626
vn -0.243387 -0.831347 -0.499624
vn -0.081957 -0.884007 -0.460233
vn -0.081957 -0.884007 -0.460233
vn 0.340106 0.409258 -0.846662
vn 0.340105 0.409257 -0.846663
vn 0.340105 0.409258 -0.846662
vn 0.340105 0.409260 -0.846661
vn 0.340105 0.409261 -0.846660
vn 0.340106 0.409259 -0.846661
vn 0.340106 0.409258 -0.846662
vn 0.340105 0.409257 -0.846663
vn 0.340105 0.409258 -0.846662
vn 0.340105 0.409259 -0.846661
vn 0.340105 0.409256 -0.846663
vn 0.340108 0.409258 -0.846661
vn 0.340105 0.409258 -0.846662
vn 0.340106 0.409259 -0.846661
vn 0.340107 0.409257 -0.846661
vn 0.340106 0.409256 -0.846663
vn 0.340103 0.409258 -0.846662
vn 0.340104 0.409259 -0.846662
vn 0.340106 0.409260 -0.846661
vn 0.340105 0.409259 -0.846662
vn 0.340108 0.409258 -0.846661
vn 0.340108 0.409258 -0.846661
vn 0.340105 0.409258 -0.846662
vn 0.340106 0.409258 -0.846662
vn 0.340106 0.409259 -0.846661
vn 0.340105 0.409258 -0.846662
vn 0.340106 0.409258 -0.846661
vn 0.340106 0.409256 -0.846662
vn 0.340104 0.409259 -0.846662
vn 0.340107 0.409259 -0.846661
vn 0.340105 0.409260 -0.846661
vn 0.340105 0.409257 -0.846662
vn 0.340107 0.409259 -0.846661
vn 0.340106 0.409259 -0.846661
vn 0.340105 0.409260 -0.846661
vn 0.340106 0.409258 -0.846662
vn 0.340107 0.409259 -0.846661
vn 0.340107 0.409258 -0.846661
vn 0.340108 0.409256 -0.846662
vn 0.340107 0.409258 -0.846661
vn 0.340106 0.409257 -0.846662
vn 0.340105 0.409260 -0.846661
vn 0.340104 0.409260 -0.846661
vn 0.340105 0.409260 -0.846661
vn 0.340105 0.409258 -0.846662
vn 0.340105 0.409258 -0.846662
vn 0.340108 0.409259 -0.846661
vn 0.340102 0.409258 -0.846663
vn 0.340107 0.409256 -0.846662
vn 0.340105 0.409260 -0.846661
vn 0.340106 0.409258 -0.846662
vn 0.340105 0.409257 -0.846663
vn 0.340106 0.409259 -0.846661
vn 0.340103 0.409260 -0.846662
vn 0.340106 0.409257 -0.846662
vn 0.340106 0.409258 -0.846662
vn 0.340105 0.409258 -0.846662
vn 0.340107 0.409258 -0.846661
vn 0.340108 0.409259 -0.846660
vn 0.340106 0.409259 -0.846661
vn 0.340106 0.409259 -0.846661
vn 0.340106 0.409258 -0.846661
vn 0.340104 0.409256 -0.846663
vn 0.340104 0.409258 -0.846662
vn 0.340105 0.409257 -0.846662
vn 0.340105 0.409257 -0.846662
vn 0.340105 0.409257 -0.846662
vn 0.340107 0.409258 -0.846661
vn 0.340107 0.409257 -0.846662
vn 0.340107 0.409259 -0.846660
vn 0.340107 0.409257 -0.846662
vn 0.340105 0.409257 -0.846663
vn 0.340107 0.409260 -0.846660
vn 0.340106 0.409259 -0.846661
vn 0.340102 0.409260 -0.846662
vn 0.340106 0.409259 -0.846661
vn 0.340104 0.409256 -0.846663
vn 0.340107 0.409263 -0.846659
vn 0.340106 0.409256 -0.846662
vn 0.340107 0.409258 -0.846661
vn 0.340104 0.409255 -0.846664
vn 0.340106 0.409258 -0.846662
vn 0.340105 0.409257 -0.846662
vn 0.340108 0.409256 -0.846662
vn 0.340103 0.409257 -0.846663
vn 0.340107 0.409261 -0.846660
vn 0.340104 0.409255 -0.846664
vn 0.340109 0.409261 -0.846659
vn 0.340109 0.409261 -0.846659
vn 0.340104 0.409258 -0.846663
vn 0.340104 0.409257 -0.846663
vn 0.340105 0.409260 -0.846661
vn 0.340109 0.409259 -0.846660
vn 0.340104 0.409258 -0.846663
vn 0.340106 0.409259 -0.846661
vn 0.340105 0.409257 -0.846663
vn 0.340103 0.409261 -0.846661
vn 0.340102 0.409261 -0.846662
vn 0.340105 0.409257 -0.846662
vn 0.340105 0.409258 -0.846662
vn 0.340110 0.409257 -0.846660
vn 0.340107 0.409257 -0.846661
vn 0.340106 0.409258 -0.846662
vn 0.340105 0.409258 -0.846662
vn 0.340106 0.409257 -0.846662
vn 0.340107 0.409256 -0.846662
vn 0.340104 0.409260 -0.846661
vn 0.340105 0.409256 -0.846663
vn 0.340102 0.409261 -0.846662
vn 0.340102 0.409261 -0.846662
vn 0.340102 0.409258 -0.846663
vn 0.340107 0.409257 -0.846662
vn 0.340106 0.409256 -0.846663
vn 0.340106 0.409256 -0.846662
vn 0.340105 0.409258 -0.846662
vn 0.340107 0.409257 -0.846662
vn 0.340105 0.409258 -0.846662
vn 0.340105 0.409258 -0.846662
vn 0.340105 0.409257 -0.846662
vn 0.340108 0.409258 -0.846661
vn 0.340105 0.409259 -0.846661
vn 0.340105 0.409258 -0.846662
vn 0.340103 0.409258 -0.846663
vn 0.340106 0.409257 -0.846662
vn 0.340108 0.409258 -0.846661
vn 0.340106 0.409262 -0.846660
vn 0.340105 0.409260 -0.846661
vn 0.340104 0.409254 -0.846664
vn 0.340106 0.409257 -0.846662
vn 0.340104 0.409257 -0.846663
vn 0.340105 0.409260 -0.846661
vn 0.340102 0.409258 -0.846663
vn 0.340106 0.409257 -0.846662
vn 0.340106 0.409257 -0.846662
vn 0.340106 0.409258 -0.846662
vn 0.340104 0.409257 -0.846663
vn 0.340106 0.409257 -0.846662
vn 0.340102 0.409258 -0.846663
vn 0.340108 0.409261 -0.846659
vn 0.340106 0.409257 -0.846662
vn 0.340106 0.409257 -0.846662
vn 0.340106 0.409257 -0.846662
vn 0.340107 0.409260 -0.846660
vn 0.340103 0.409256 -0.846663
vn -0.081962 0.909807 0.406857
vn -0.081962 0.909807 0.406857
vn -0.243387 0.907964 0.341121
vn -0.397432 0.878530 0.265014
vn -0.243389 0.907964 0.341121
vn -0.397429 0.878531 0.265015
vn -0.539382 0.822408 0.180863
vn -0.664949 0.741298 0.091216
vn -0.539382 0.822408 0.180863
vn -0.664953 0.741295 0.091213
vn -0.770324 0.637651 -0.001213
vn -0.770324 0.637652 -0.001213
vn -0.852279 0.514646 -0.093593
vn -0.852279 0.514646 -0.093593
vn -0.908344 0.375994 -0.183136
vn -0.908344 0.375995 -0.183136
vn -0.936809 0.225921 -0.267112
vn -0.936809 0.225921 -0.267112
vn -0.936809 0.068981 -0.342974
vn -0.936809 0.068981 -0.342973
vn -0.908345 -0.090051 -0.408412
vn -0.908345 -0.090051 -0.408412
vn -0.852279 -0.246353 -0.461444
vn -0.852279 -0.246353 -0.461444
vn -0.770322 -0.395161 -0.500452
vn -0.770321 -0.395162 -0.500452
vn -0.664955 -0.531969 -0.524256
vn -0.664952 -0.531972 -0.524257
vn -0.539384 -0.652611 -0.532130
vn -0.539385 -0.652611 -0.532130
vn -0.397422 -0.753426 -0.523836
vn -0.397425 -0.753425 -0.523836
vn -0.243388 -0.831347 -0.499625
vn -0.243387 -0.831347 -0.499624
vn -0.081964 -0.884006 -0.460235
vn -0.081964 -0.884006 -0.460234
vn 0.081962 -0.909807 -0.406857
vn 0.081962 -0.909807 -0.406857
vn 0.243389 -0.907964 -0.341120
vn 0.243387 -0.907964 -0.341122
vn 0.397422 -0.878533 -0.265019
vn 0.539388 -0.822405 -0.180860
vn 0.397422 -0.878533 -0.265019
vn 0.539392 -0.822403 -0.180857
vn 0.664949 -0.741298 -0.091216
vn 0.664953 -0.741294 -0.091213
vn 0.770321 -0.637655 0.001210
vn 0.852279 -0.514646 0.093593
vn 0.770321 -0.637655 0.001210
vn 0.852279 -0.514646 0.093593
vn 0.908344 -0.375994 0.183136
vn 0.936809 -0.225920 0.267113
vn 0.908345 -0.375992 0.183137
vn 0.936809 -0.068981 0.342974
vn 0.936809 -0.225921 0.267112
vn 0.908345 0.090052 0.408412
vn 0.936809 -0.068981 0.342974
vn 0.908345 0.090051 0.408412
vn 0.852279 0.246353 0.461444
vn 0.852279 0.246353 0.461444
vn 0.770322 0.395161 0.500452
vn 0.770322 0.395161 0.500452
vn 0.664955 0.531969 0.524256
vn 0.664951 0.531973 0.524257
vn 0.539388 0.652608 0.532131
vn 0.539380 0.652616 0.532130
vn 0.397429 0.753423 0.523836
vn 0.397423 0.753426 0.523836
vn 0.243388 0.831347 0.499625
vn 0.243386 0.831347 0.499624
vn 0.081964 0.884006 0.460235
vn 0.081964 0.884006 0.460235
f 1//1 2//1 3//1
f 4//2 2//2 1//2
f 5//3 3//3 6//3
f 5//4 6//4 7//4
f 5//5 1//5 3//5
f 8//6 9//6 10//6
f 8//7 10//7 2//7
f 8//8 2//8 4//8
f 11//9 5//9 7//9
f 12//10 13//10 9//10
f 12//11 9//11 8//11
f 14//12 11//12 7//12
f 14//13 7//13 15//13
f 16//14 13//14 12//14
f 17//15 15//15 18//15
f 17//16 14//16 15//16
f 19//17 13//17 16//17
f 19//18 20//18 13//18
f 21//19 17//19 18//19
f 21//20 18//20 22//20
f 23//21 24//21 20//21
f 23//22 20//22 19//22
f 25//23 21//23 22//23
f 25//24 22//24 26//24
f 27//25 28//25 24//25
f 27//26 24//26 23//26
f 29//27 25//27 26//27
f 29//28 26//28 30//28
f 31//29 32//29 28//29
f 31//30 28//30 27//30
f 33//31 29//31 30//31
f 33//32 30//32 34//32
f 35//33 36//33 32//33
f 35//34 32//34 31//34
f 37//35 33//35 34//35
f 37//36 38//36 33//36
f 39//37 36//37 35//37
f 39//38 35//38 40//38
f 41//39 38//39 37//39
f 41//40 42//40 38//40
f 43//41 40//41 44//41
f 43//42 39//42 40//42
f 45//43 43//43 44//43
f 46//44 42//44 41//44
f 46//45 47//45 42//45
f 48//46 43//46 45//46
f 49//47 47//47 46//47
f 49//48 50//48 47//48
f 51//49 45//49 52//49
f 51//50 48//50 45//50
f 53//51 54//51 55//51
f 53//52 50//52 49//52
f 53//53 55//53 50//53
f 56//54 52//54 57//54
f 56//55 51//55 52//55
f 58//56 54//56 53//56
f 59//57 57//57 60//57
f 59//58 56//58 57//58
f 61//59 62//59 54//59
f 61//60 63//60 62//60
f 61//61 54//61 58//61
f 64//62 59//62 60//62
f 64//63 60//63 65//63
f 66//64 63//64 61//64
f 67//65 64//65 65//65
f 67//66 65//66 68//66
f 69//67 63//67 66//67
f 69//68 70//68 63//68
f 71//69 67//69 68//69
f 71//70 70//70 69//70
f 71//71 72//71 70//71
f 71//72 68//72 72//72
f 3//73 73//73 74//73
f 3//74 74//74 75//74
f 2//75 73//75 3//75
f 6//76 75//76 76//76
f 6//77 3//77 75//77
f 10//78 77//78 73//78
f 10//79 73//79 2//79
f 7//80 6//80 76//80
f 9//81 78//81 77//81
f 9//82 77//82 10//82
f 15//83 7//83 76//83
f 15//84 76//84 79//84
f 13//85 78//85 9//85
f 13//86 80//86 78//86
f 18//87 15//87 79//87
f 18//88 79//88 81//88
f 20//89 82//89 80//89
f 20//90 80//90 13//90
f 22//91 18//91 81//91
f 22//92 81//92 83//92
f 24//93 84//93 82//93
f 24//94 82//94 20//94
f 85//95 84//95 24//95
f 26//96 22//96 83//96
f 26//97 83//97 86//97
f 28//98 85//98 24//98
f 30//99 26//99 86//99
f 30//100 86//100 87//100
f 32//101 85//101 28//101
f 32//102 88//102 85//102
f 34//103 87//103 89//103
f 34//104 30//104 87//104
f 36//105 90//105 88//105
f 36//106 88//106 32//106
f 37//107 34//107 89//107
f 91//108 37//108 89//108
f 92//109 90//109 36//109
f 92//110 36//110 39//110
f 41//111 37//111 91//111
f 93//112 41//112 91//112
f 94//113 39//113 43//113
f 94//114 92//114 39//114
f 95//115 41//115 93//115
f 95//116 46//116 41//116
f 96//117 43//117 48//117
f 96//118 94//118 43//118
f 97//119 46//119 95//119
f 97//120 49//120 46//120
f 97//121 53//121 49//121
f 98//122 51//122 56//122
f 98//123 48//123 51//123
f 98//124 96//124 48//124
f 99//125 98//125 56//125
f 100//126 53//126 97//126
f 101//127 56//127 59//127
f 101//128 99//128 56//128
f 102//129 58//129 53//129
f 102//130 61//130 58//130
f 102//131 53//131 100//131
f 103//132 101//132 59//132
f 103//133 59//133 64//133
f 104//134 61//134 102//134
f 105//135 66//135 61//135
f 105//136 61//136 104//136
f 106//137 103//137 64//137
f 106//138 67//138 71//138
f 106//139 64//139 67//139
f 107//140 66//140 105//140
f 107//141 69//141 66//141
f 108//142 71//142 69//142
f 108//143 69//143 107//143
f 108//144 106//144 71//144
f 109//145 4//145 1//145
f 109//146 1//146 110//146
f 111//147 1//147 5//147
f 111//148 110//148 1//148
f 112//149 8//149 4//149
f 112//150 4//150 109//150
f 113//151 5//151 11//151
f 113//152 111//152 5//152
f 114//153 12//153 8//153
f 114//154 8//154 112//154
f 115//155 11//155 14//155
f 115//156 113//156 11//156
f 116//157 16//157 12//157
f 116//158 12//158 114//158
f 17//159 115//159 14//159
f 117//160 115//160 17//160
f 118//161 16//161 116//161
f 118//162 19//162 16//162
f 21//163 117//163 17//163
f 119//164 117//164 21//164
f 120//165 19//165 118//165
f 120//166 23//166 19//166
f 121//167 119//167 21//167
f 121//168 21//168 25//168
f 122//169 27//169 23//169
f 122//170 23//170 120//170
f 29//171 121//171 25//171
f 31//172 27//172 122//172
f 123//173 121//173 29//173
f 124//174 31//174 122//174
f 125//175 29//175 33//175
f 125//176 123//176 29//176
f 126//177 35//177 31//177
f 126//178 31//178 124//178
f 127//179 125//179 33//179
f 38//180 127//180 33//180
f 40//181 35//181 126//181
f 40//182 126//182 128//182
f 129//183 40//183 128//183
f 42//184 127//184 38//184
f 42//185 130//185 127//185
f 44//186 40//186 129//186
f 131//187 44//187 129//187
f 47//188 130//188 42//188
f 47//189 132//189 130//189
f 45//190 44//190 131//190
f 50//191 132//191 47//191
f 50//192 133//192 132//192
f 52//193 131//193 134//193
f 52//194 45//194 131//194
f 135//195 133//195 50//195
f 55//196 135//196 50//196
f 57//197 134//197 136//197
f 57//198 52//198 134//198
f 54//199 137//199 135//199
f 54//200 135//200 55//200
f 60//201 136//201 138//201
f 60//202 57//202 136//202
f 62//203 139//203 137//203
f 62//204 137//204 54//204
f 65//205 138//205 140//205
f 65//206 60//206 138//206
f 141//207 65//207 140//207
f 63//208 142//208 139//208
f 63//209 139//209 62//209
f 68//210 65//210 141//210
f 70//211 142//211 63//211
f 70//212 143//212 142//212
f 70//213 144//213 143//213
f 72//214 144//214 70//214
f 72//215 141//215 144//215
f 72//216 68//216 141//216
f 100//217 145//217 146//217
f 102//218 100//218 146//218
f 104//219 146//219 147//219
f 104//220 147//220 148//220
f 104//221 102//221 146//221
f 105//222 104//222 148//222
f 107//223 148//223 149//223
f 107//224 149//224 150//224
f 107//225 105//225 148//225
f 108//226 107//226 150//226
f 106//227 108//227 150//227
f 106//228 150//228 151//228
f 103//229 106//229 151//229
f 103//230 151//230 152//230
f 101//231 103//231 152//231
f 101//232 152//232 153//232
f 101//233 153//233 154//233
f 99//234 101//234 154//234
f 98//235 99//235 154//235
f 98//236 154//236 155//236
f 98//237 155//237 156//237
f 96//238 98//238 156//238
f 94//239 96//239 156//239
f 94//240 156//240 157//240
f 92//241 94//241 157//241
f 92//242 157//242 158//242
f 90//243 92//243 158//243
f 90//244 158//244 159//244
f 88//245 90//245 159//245
f 88//246 159//246 160//246
f 85//247 88//247 160//247
f 85//248 160//248 161//248
f 84//249 85//249 161//249
f 84//250 161//250 162//250
f 82//251 84//251 162//251
f 82//252 162//252 163//252
f 80//253 163//253 164//253
f 80//254 82//254 163//254
f 78//255 164//255 165//255
f 78//256 80//256 164//256
f 78//257 165//257 166//257
f 77//258 78//258 166//258
f 73//259 166//259 167//259
f 73//260 167//260 168//260
f 73//261 77//261 166//261
f 74//262 73//262 168//262
f 75//263 168//263 169//263
f 75//264 74//264 168//264
f 76//265 169//265 170//265
f 76//266 170//266 171//266
f 76//267 75//267 169//267
f 79//268 171//268 172//268
f 79//269 76//269 171//269
f 81//270 79//270 172//270
f 83//271 172//271 173//271
f 83//272 173//272 174//272
f 83//273 81//273 172//273
f 86//274 83//274 174//274
f 87//275 174//275 175//275
f 87//276 175//276 176//276
f 87//277 86//277 174//277
f 89//278 87//278 176//278
f 89//279 176//279 177//279
f 91//280 89//280 177//280
f 93//281 91//281 177//281
f 93//282 177//282 178//282
f 93//283 178//283 179//283
f 95//284 93//284 179//284
f 97//285 95//285 179//285
f 97//286 179//286 180//286
f 100//287 97//287 180//287
f 100//288 180//288 145//288
f 135//289 137//289 181//289
f 181//290 137//290 182//290
f 182//291 139//291 183//291
f 137//292 139//292 182//292
f 183//293 142//293 184//293
f 184//294 142//294 185//294
f 139//295 142//295 183//295
f 142//296 143//296 185//296
f 185//297 144//297 186//297
f 143//298 144//298 185//298
f 186//299 141//299 187//299
f 144//300 141//300 186//300
f 141//301 140//301 187//301
f 187//302 140//302 188//302
f 188//303 140//303 189//303
f 140//304 138//304 189//304
f 189//305 138//305 190//305
f 138//306 136//306 190//306
f 136//307 134//307 190//307
f 190//308 134//308 191//308
f 134//309 131//309 191//309
f 191//310 131//310 192//310
f 131//311 129//311 192//311
f 192//312 129//312 193//312
f 129//313 128//313 193//313
f 193//314 128//314 194//314
f 128//315 126//315 194//315
f 194//316 126//316 195//316
f 126//317 124//317 195//317
f 195//318 124//318 196//318
f 196//319 124//319 197//319
f 124//320 122//320 197//320
f 197//321 122//321 198//321
f 122//322 120//322 198//322
f 120//323 118//323 198//323
f 198//324 118//324 199//324
f 199//325 116//325 200//325
f 118//326 116//326 199//326
f 200//327 114//327 201//327
f 116//328 114//328 200//328
f 201//329 112//329 202//329
f 114//330 112//330 201//330
f 202//331 109//331 203//331
f 203//332 109//332 204//332
f 112//333 109//333 202//333
f 109//334 110//334 204//334
f 204//335 111//335 205//335
f 110//336 111//336 204//336
f 205//337 113//337 206//337
f 111//338 113//338 205//338
f 206//339 115//339 207//339
f 207//340 115//340 208//340
f 113//341 115//341 206//341
f 115//342 117//342 208//342
f 208//343 119//343 209//343
f 209//344 119//344 210//344
f 117//345 119//345 208//345
f 210//346 121//346 211//346
f 119//347 121//347 210//347
f 211//348 123//348 212//348
f 121//349 123//349 211//349
f 123//350 125//350 212//350
f 212//351 127//351 213//351
f 125//352 127//352 212//352
f 127//353 130//353 213//353
f 213//354 130//354 214//354
f 130//355 132//355 214//355
f 214//356 132//356 215//356
f 215//357 132//357 216//357
f 132//358 133//358 216//358
f 216//359 133//359 181//359
f 133//360 135//360 181//360
f 167//361 217//361 168//361
f 168//362 217//362 169//362
f 167//363 218//363 217//363
f 169//364 219//364 170//364
f 217//365 219//365 169//365
f 166//366 220//366 167//366
f 167//367 220//367 218//367
f 219//368 221//368 170//368
f 165//369 222//369 166//369
f 166//370 222//370 220//370
f 221//371 223//371 170//371
f 170//372 223//372 171//372
f 165//373 224//373 222//373
f 164//374 224//374 165//374
f 223//375 225//375 171//375
f 171//376 225//376 172//376
f 163//377 226//377 164//377
f 164//378 226//378 224//378
f 225//379 227//379 172//379
f 172//380 227//380 173//380
f 162//381 228//381 163//381
f 163//382 228//382 226//382
f 162//383 161//383 228//383
f 227//384 229//384 173//384
f 173//385 229//385 174//385
f 161//386 230//386 228//386
f 229//387 231//387 174//387
f 174//388 231//388 175//388
f 161//389 232//389 230//389
f 160//390 232//390 161//390
f 175//391 233//391 176//391
f 231//392 233//392 175//392
f 159//393 234//393 160//393
f 160//394 234//394 232//394
f 233//395 235//395 176//395
f 235//396 177//396 176//396
f 159//397 158//397 234//397
f 234//398 158//398 236//398
f 235//399 237//399 177//399
f 237//400 178//400 177//400
f 236//401 157//401 238//401
f 158//402 157//402 236//402
f 237//403 179//403 178//403
f 239//404 179//404 237//404
f 238//405 156//405 240//405
f 157//406 156//406 238//406
f 239//407 180//407 179//407
f 241//408 180//408 239//408
f 242//409 180//409 241//409
f 243//410 155//410 244//410
f 240//411 155//411 243//411
f 156//412 155//412 240//412
f 155//413 154//413 244//413
f 242//414 145//414 180//414
f 244//415 153//415 245//415
f 154//416 153//416 244//416
f 246//417 146//417 242//417
f 247//418 146//418 246//418
f 242//419 146//419 145//419
f 153//420 152//420 245//420
f 245//421 152//421 248//421
f 247//422 147//422 146//422
f 249//423 148//423 247//423
f 247//424 148//424 147//424
f 152//425 151//425 248//425
f 250//426 151//426 251//426
f 248//427 151//427 250//427
f 249//428 149//428 148//428
f 252//429 149//429 249//429
f 251//430 150//430 252//430
f 252//431 150//431 149//431
f 151//432 150//432 251//432
f 253//433 204//433 254//433
f 254//434 204//434 255//434
f 253//435 203//435 204//435
f 204//436 205//436 255//436
f 256//437 202//437 253//437
f 253//438 202//438 203//438
f 255//439 206//439 257//439
f 257//440 206//440 258//440
f 205//441 206//441 255//441
f 259//442 201//442 256//442
f 256//443 201//443 202//443
f 206//444 207//444 258//444
f 259//445 200//445 201//445
f 260//446 200//446 259//446
f 258//447 208//447 261//447
f 207//448 208//448 258//448
f 260//449 199//449 200//449
f 262//450 199//450 260//450
f 208//451 209//451 261//451
f 261//452 209//452 263//452
f 264//453 198//453 262//453
f 262//454 198//454 199//454
f 209//455 210//455 263//455
f 263//456 210//456 265//456
f 264//457 197//457 198//457
f 266//458 197//458 264//458
f 210//459 211//459 265//459
f 265//460 211//460 267//460
f 266//461 196//461 197//461
f 268//462 196//462 266//462
f 268//463 269//463 196//463
f 267//464 212//464 270//464
f 211//465 212//465 267//465
f 269//466 195//466 196//466
f 212//467 213//467 270//467
f 213//468 271//468 270//468
f 269//469 272//469 195//469
f 195//470 272//470 194//470
f 213//471 273//471 271//471
f 214//472 273//472 213//472
f 194//473 274//473 193//473
f 272//474 274//474 194//474
f 274//475 192//475 193//475
f 214//476 275//476 273//476
f 215//477 275//477 214//477
f 274//478 276//478 192//478
f 215//479 277//479 275//479
f 216//480 277//480 215//480
f 192//481 278//481 191//481
f 276//482 278//482 192//482
f 182//483 279//483 181//483
f 181//484 279//484 216//484
f 216//485 279//485 277//485
f 191//486 280//486 190//486
f 278//487 280//487 191//487
f 190//488 281//488 189//488
f 280//489 281//489 190//489
f 182//490 282//490 279//490
f 281//491 283//491 189//491
f 189//492 283//492 188//492
f 182//493 284//493 282//493
f 183//494 284//494 182//494
f 184//495 285//495 183//495
f 185//496 285//496 184//496
f 183//497 285//497 284//497
f 283//498 286//498 188//498
f 188//499 286//499 187//499
f 185//500 287//500 285//500
f 286//501 288//501 187//501
f 185//502 288//502 287//502
f 186//503 288//503 185//503
f 187//504 288//504 186//504
f 246//505 242//505 279//505
f 246//506 279//506 282//506
f 246//507 282//507 284//507
f 247//508 284//508 285//508
f 247//509 246//509 284//509
f 249//510 247//510 285//510
f 252//511 285//511 287//511
f 252//512 287//512 288//512
f 252//513 249//513 285//513
f 251//514 252//514 288//514
f 250//515 251//515 288//515
f 250//516 288//516 286//516
f 250//517 286//517 283//517
f 248//518 250//518 283//518
f 245//519 248//519 283//519
f 245//520 283//520 281//520
f 245//521 281//521 280//521
f 244//522 245//522 280//522
f 243//523 244//523 280//523
f 243//524 280//524 278//524
f 240//525 243//525 278//525
f 240//526 278//526 276//526
f 238//527 240//527 276//527
f 238//528 276//528 274//528
f 236//529 238//529 274//529
f 236//530 274//530 272//530
f 234//531 236//531 272//531
f 234//532 272//532 269//532
f 234//533 269//533 268//533
f 232//534 234//534 268//534
f 230//535 232//535 268//535
f 230//536 268//536 266//536
f 228//537 230//537 266//537
f 228//538 266//538 264//538
f 226//539 228//539 264//539
f 226//540 264//540 262//540
f 224//541 262//541 260//541
f 224//542 226//542 262//542
f 224//543 260//543 259//543
f 222//544 224//544 259//544
f 220//545 259//545 256//545
f 220//546 256//546 253//546
f 220//547 222//547 259//547
f 218//548 220//548 253//548
f 217//549 218//549 253//549
f 217//550 253//550 254//550
f 219//551 254//551 255//551
f 219//552 255//552 257//552
f 219//553 217//553 254//553
f 221//554 219//554 257//554
f 223//555 257//555 258//555
f 223//556 258//556 261//556
f 223//557 221//557 257//557
f 225//558 261//558 263//558
f 225//559 223//559 261//559
f 227//560 263//560 265//560
f 227//561 225//561 263//561
f 229//562 227//562 265//562
f 231//563 265//563 267//563
f 231//564 229//564 265//564
f 233//565 231//565 267//565
f 233//566 267//566 270//566
f 233//567 270//567 271//567
f 235//568 233//568 271//568
f 237//569 235//569 271//569
f 237//570 271//570 273//570
f 237//571 273//571 275//571
f 239//572 237//572 275//572
f 239//573 275//573 277//573
f 241//574 239//574 277//574
f 241//575 277//575 279//575
f 242//576 241//576 279//576
