# Created by FreeCAD <https://www.freecad.org>
v -64.794357 -599.485107 -12.428615
v -68.066292 -602.557983 -10.728077
v -66.087387 -605.013123 -12.214671
v -63.290394 -601.351013 -13.558427
v -61.517307 -602.864563 -14.817531
v -63.754379 -607.004639 -13.871387
v -61.138153 -608.472046 -15.647887
v -65.983513 -597.323547 -11.462425
v -70.733864 -596.567017 -8.439391
v -69.630966 -599.713806 -9.456775
v -59.528973 -603.979797 -16.167671
v -58.318199 -609.370667 -17.490192
v -66.821709 -594.931946 -10.689214
v -57.385807 -604.662781 -17.567823
v -55.380203 -609.673279 -19.342327
v -67.283493 -592.383057 -10.132475
v -71.341469 -593.213196 -7.706841
v -55.152931 -604.892761 -18.975445
v -67.354828 -589.754272 -9.809125
v -71.012589 -586.295410 -7.175938
v -71.435333 -589.754272 -7.281380
v -52.898186 -604.662781 -20.347767
v -52.413433 -609.370667 -21.148012
v -67.033546 -587.125549 -9.728989
v -49.508034 -608.472046 -22.852385
v -50.690083 -603.979797 -21.643089
v -66.329414 -584.576660 -9.894501
v -70.086098 -582.941589 -7.393716
v -68.683998 -579.794800 -7.928100
v -48.595715 -602.864563 -22.822058
v -46.752285 -607.004639 -24.403660
v -65.263817 -582.185059 -10.300632
v -46.678715 -601.351013 -23.848846
v -44.229919 -605.013123 -25.754698
v -63.869141 -580.023499 -10.935042
v -66.848900 -576.950623 -8.762851
v -62.187756 -578.157593 -11.778457
v -42.017574 -602.557983 -26.864452
v -44.997334 -599.485107 -24.692261
v -64.636551 -574.495483 -9.872605
v -43.602657 -597.323547 -25.326672
v -60.270760 -576.644043 -12.805246
v -40.182472 -599.713806 -27.699203
v -62.114185 -572.503967 -11.223644
v -58.176388 -575.528809 -13.984214
v -38.780373 -596.567017 -28.233587
v -42.537060 -594.931946 -25.732803
v -59.358437 -571.036560 -12.774919
v -37.853878 -593.213196 -28.451366
v -41.832924 -592.383057 -25.898315
v -56.453037 -570.137939 -14.479291
v -55.968285 -574.845825 -15.279537
v -37.431141 -589.754272 -28.345922
v -41.582977 -587.125549 -25.494829
v -41.511642 -589.754272 -25.818178
v -53.486267 -569.835327 -16.284977
v -53.713539 -574.615845 -16.651859
v -51.480663 -574.845825 -18.059481
v -37.525002 -586.295410 -27.920464
v -50.548271 -570.137939 -18.137110
v -49.337498 -575.528809 -19.459633
v -47.728317 -571.036560 -19.979416
v -38.132610 -582.941589 -27.187912
v -42.044762 -584.576660 -24.938089
v -42.882961 -582.185059 -24.164879
v -39.235504 -579.794800 -26.170528
v -45.112091 -572.503967 -21.755917
v -47.349167 -576.644043 -20.809772
v -45.576077 -578.157593 -22.068876
v -40.800175 -576.950623 -24.899227
v -44.072109 -580.023499 -23.198689
v -42.779079 -574.495483 -23.412632
v -70.166344 -610.353760 -10.255028
v -67.016785 -613.042297 -12.491595
v -72.837868 -607.039246 -8.248126
v -74.950172 -603.199646 -6.531868
v -63.484875 -615.023254 -14.889870
v -59.677937 -616.236389 -17.376982
v -76.439079 -598.951416 -5.158401
v -77.259354 -594.423828 -4.169457
v -55.711639 -616.644958 -19.877363
v -77.386063 -589.754272 -3.595085
v -51.706501 -616.236389 -22.315039
v -76.815369 -585.084778 -3.452737
v -47.784214 -615.023254 -24.615942
v -75.564598 -580.557190 -3.746739
v -44.063953 -613.042297 -26.710161
v -73.671768 -576.308960 -4.468156
v -40.658756 -610.353760 -28.534065
v -71.194382 -572.469299 -5.595070
v -37.672092 -607.039246 -30.032234
v -68.207718 -569.154846 -7.093239
v -35.194706 -603.199646 -31.159147
v -64.802521 -566.466309 -8.917142
v -33.301872 -598.951416 -31.880566
v -61.082256 -564.485352 -11.011361
v -32.051105 -594.423828 -32.174564
v -57.159969 -563.272217 -13.312264
v -53.154831 -562.863647 -15.749941
v -31.480406 -589.754272 -32.032219
v -49.188534 -563.272217 -18.250320
v -31.607119 -585.084778 -31.457848
v -45.381599 -564.485352 -20.737434
v -32.427391 -580.557190 -30.468903
v -41.849689 -566.466309 -23.135708
v -33.916302 -576.308960 -29.095436
v -36.028606 -572.469299 -27.379177
v -38.700127 -569.154846 -25.372276
v -64.658028 -599.357056 -12.499471
v -63.173851 -601.198425 -13.614416
v -61.424095 -602.692078 -14.856954
v -65.831535 -597.223938 -11.545994
v -59.461922 -603.792603 -16.189329
v -66.658707 -594.863831 -10.782956
v -57.346958 -604.466614 -17.571058
v -67.114410 -592.348450 -10.233543
v -55.143459 -604.693542 -18.960157
v -67.184807 -589.754272 -9.914448
v -52.918385 -604.466614 -20.314423
v -66.867752 -587.160156 -9.835366
v -50.739334 -603.792603 -21.592703
v -66.172882 -584.644775 -9.998700
v -48.672523 -602.692078 -22.756157
v -65.121307 -582.284668 -10.399487
v -46.780746 -601.198425 -23.769436
v -63.744984 -580.151550 -11.025551
v -45.121490 -599.357056 -24.601753
v -62.085724 -578.310181 -11.857867
v -43.745163 -597.223938 -25.227816
v -60.193947 -576.816528 -12.871146
v -58.127136 -575.716003 -14.034601
v -42.693588 -594.863831 -25.628603
v -41.998718 -592.348450 -25.791937
v -55.948086 -575.041992 -15.312881
v -41.681664 -589.754272 -25.712856
v -53.723011 -574.815063 -16.667145
v -51.519512 -575.041992 -18.056246
v -41.752060 -587.160156 -25.393761
v -42.207767 -584.644775 -24.844347
v -49.404549 -575.716003 -19.437975
v -47.442375 -576.816528 -20.770350
v -43.034939 -582.284668 -24.081310
v -44.208443 -580.151550 -23.127832
v -45.692619 -578.310181 -22.012888
v -37.774174 -588.675354 -42.192158
v -37.900887 -584.005859 -41.617786
v -38.721161 -579.478210 -40.628845
v -40.210068 -575.230042 -39.255375
v -42.322372 -571.390381 -37.539120
v -44.993896 -568.075928 -35.532215
v -48.143459 -565.387390 -33.295650
v -51.675365 -563.406433 -30.897373
v -55.482304 -562.193237 -28.410261
v -59.448597 -561.784729 -25.909882
v -63.453739 -562.193237 -23.472204
v -67.376022 -563.406433 -21.171301
v -71.096291 -565.387390 -19.077082
v -74.501480 -568.075928 -17.253180
v -77.488152 -571.390381 -15.755010
v -79.965538 -575.230042 -14.628097
v -81.858368 -579.478210 -13.906679
v -83.109138 -584.005859 -13.612678
v -83.679832 -588.675354 -13.755026
v -83.553123 -593.344910 -14.329397
v -82.732849 -597.872498 -15.318340
v -81.243942 -602.120667 -16.691809
v -79.131638 -605.960327 -18.408066
v -76.460114 -609.274780 -20.414968
v -73.310547 -611.963379 -22.651535
v -69.778641 -613.944336 -25.049810
v -65.971703 -615.157471 -27.536922
v -62.005409 -615.566040 -30.037304
v -58.000271 -615.157471 -32.474979
v -54.077984 -613.944336 -34.775883
v -50.357719 -611.963379 -36.870102
v -46.952526 -609.274780 -38.694004
v -43.965858 -605.960327 -40.192173
v -41.488472 -602.120667 -41.319088
v -39.595642 -597.872498 -42.040504
v -38.344872 -593.344910 -42.334507
v -66.332260 -585.528503 -65.505959
v -66.402649 -582.934326 -65.186859
v -66.858360 -580.418945 -64.637444
v -67.685532 -578.058838 -63.874409
v -68.859032 -575.925720 -62.920933
v -70.343208 -574.084351 -61.805988
v -72.092972 -572.590698 -60.563450
v -74.055138 -571.490173 -59.231075
v -76.170105 -570.816223 -57.849346
v -78.373604 -570.589233 -56.460243
v -80.598679 -570.816223 -55.105980
v -82.777733 -571.490173 -53.827702
v -84.844543 -572.590698 -52.664246
v -86.736313 -574.084351 -51.650967
v -88.395576 -575.925720 -50.818649
v -89.771904 -578.058838 -50.192589
v -90.823471 -580.418945 -49.791801
v -91.518349 -582.934326 -49.628464
v -91.835403 -585.528503 -49.707546
v -91.765007 -588.122681 -50.026642
v -91.309296 -590.638000 -50.576057
v -90.482124 -592.998108 -51.339092
v -89.308624 -595.131226 -52.292572
v -87.824448 -596.972595 -53.407516
v -86.074684 -598.466248 -54.650051
v -84.112518 -599.566772 -55.982430
v -81.997551 -600.240784 -57.364159
v -79.794052 -600.467712 -58.753258
v -77.568977 -600.240784 -60.107521
v -75.389931 -599.566772 -61.385803
v -73.323112 -598.466248 -62.549255
v -71.431343 -596.972595 -63.562538
v -69.772079 -595.131226 -64.394852
v -68.395752 -592.998108 -65.020912
v -67.344185 -590.638000 -65.421700
v -66.649307 -588.122681 -65.585037
v -72.381157 -603.934204 -22.374611
v -74.360062 -601.479065 -20.888018
v -70.048149 -605.925720 -24.031328
v -75.924736 -598.634888 -19.616714
v -67.431923 -607.393127 -25.807827
v -77.027626 -595.488098 -18.599331
v -64.611969 -608.291748 -27.650133
v -77.635239 -592.134277 -17.866781
v -61.673969 -608.594360 -29.502268
v -77.729103 -588.675354 -17.441320
v -58.707203 -608.291748 -31.307953
v -77.306358 -585.216492 -17.335878
v -55.801804 -607.393127 -33.012325
v -76.379868 -581.862671 -17.553656
v -53.046055 -605.925720 -34.563599
v -74.977768 -578.715881 -18.088039
v -50.523685 -603.934204 -35.914639
v -73.142670 -575.871704 -18.922791
v -48.311340 -601.479065 -37.024395
v -70.930321 -573.416565 -20.032545
v -46.476242 -598.634888 -37.859146
v -68.407951 -571.424988 -21.383585
v -45.074142 -595.488098 -38.393528
v -65.652206 -569.957642 -22.934858
v -44.147648 -592.134277 -38.611305
v -62.746807 -569.058960 -24.639231
v -59.780037 -568.756348 -26.444918
v -56.842041 -569.058960 -28.297050
v -43.818768 -585.216492 -38.080402
v -43.724907 -588.675354 -38.505863
v -54.022087 -569.957642 -30.139357
v -51.405857 -571.424988 -31.915857
v -44.426380 -581.862671 -37.347851
v -45.529274 -578.715881 -36.330471
v -47.093945 -575.871704 -35.059166
v -49.072849 -573.416565 -33.572575
v -92.716888 -598.332153 -50.521175
v -90.737984 -600.787292 -52.007771
v -88.404976 -602.778870 -53.664486
v -95.384453 -592.341187 -48.232491
v -94.281555 -595.487976 -49.249874
v -85.788742 -604.246216 -55.440987
v -82.968788 -605.144897 -57.283291
v -80.030792 -605.447510 -59.135426
v -95.992065 -588.987366 -47.499939
v -95.663185 -582.069580 -46.969036
v -96.085922 -585.528503 -47.074478
v -77.064026 -605.144897 -60.941113
v -74.158630 -604.246216 -62.645485
v -94.736687 -578.715759 -47.186817
v -93.334595 -575.568970 -47.721199
v -71.402878 -602.778870 -64.196762
v -68.880508 -600.787292 -65.547798
v -91.499489 -572.724792 -48.555950
v -66.668167 -598.332153 -66.657555
v -89.287148 -570.269653 -49.665703
v -64.833061 -595.487976 -67.492302
v -86.764778 -568.278137 -51.016743
v -63.430965 -592.341187 -68.026688
v -84.009033 -566.810730 -52.568016
v -62.504471 -588.987366 -68.244469
v -81.103630 -565.912109 -54.272392
v -78.136864 -565.609497 -56.078075
v -62.081734 -585.528503 -68.139023
v -75.198868 -565.912109 -57.930210
v -62.175594 -582.069580 -67.713562
v -72.378914 -566.810730 -59.772514
v -62.783203 -578.715759 -66.981010
v -63.886097 -575.568970 -65.963631
v -69.762680 -568.278137 -61.549015
v -65.450768 -572.724792 -64.692329
v -67.429672 -570.269653 -63.205730
vn 0.524481 -0.089911 0.846662
vn 0.524482 -0.089912 0.846661
vn 0.524481 -0.089911 0.846661
vn 0.524480 -0.089911 0.846662
vn 0.524481 -0.089911 0.846662
vn 0.524481 -0.089911 0.846662
vn 0.524480 -0.089911 0.846662
vn 0.524480 -0.089911 0.846662
vn 0.524481 -0.089911 0.846661
vn 0.524480 -0.089911 0.846662
vn 0.524481 -0.089911 0.846662
vn 0.524480 -0.089912 0.846662
vn 0.524481 -0.089912 0.846661
vn 0.524481 -0.089911 0.846662
vn 0.524481 -0.089911 0.846662
vn 0.524481 -0.089912 0.846661
vn 0.524481 -0.089910 0.846662
vn 0.524480 -0.089913 0.846662
vn 0.524480 -0.089910 0.846662
vn 0.524481 -0.089912 0.846662
vn 0.524480 -0.089912 0.846662
vn 0.524481 -0.089912 0.846662
vn 0.524480 -0.089912 0.846662
vn 0.524481 -0.089911 0.846662
vn 0.524481 -0.089910 0.846662
vn 0.524481 -0.089910 0.846662
vn 0.524480 -0.089911 0.846662
vn 0.524482 -0.089910 0.846661
vn 0.524482 -0.089910 0.846661
vn 0.524482 -0.089911 0.846661
vn 0.524480 -0.089911 0.846662
vn 0.524481 -0.089911 0.846662
vn 0.524481 -0.089911 0.846662
vn 0.524481 -0.089912 0.846662
vn 0.524480 -0.089912 0.846662
vn 0.524481 -0.089912 0.846662
vn 0.524481 -0.089911 0.846662
vn 0.524480 -0.089912 0.846662
vn 0.524480 -0.089911 0.846662
vn 0.524481 -0.089911 0.846661
vn 0.524481 -0.089911 0.846662
vn 0.524481 -0.089911 0.846662
vn 0.524481 -0.089911 0.846661
vn 0.524481 -0.089911 0.846662
vn 0.524481 -0.089910 0.846662
vn 0.524481 -0.089911 0.846661
vn 0.524480 -0.089910 0.846662
vn 0.524481 -0.089911 0.846662
vn 0.524481 -0.089912 0.846661
vn 0.524480 -0.089911 0.846662
vn 0.524481 -0.089912 0.846662
vn 0.524481 -0.089910 0.846662
vn 0.524481 -0.089910 0.846662
vn 0.524481 -0.089912 0.846661
vn 0.524481 -0.089912 0.846662
vn 0.524481 -0.089912 0.846662
vn 0.524481 -0.089912 0.846662
vn 0.524480 -0.089912 0.846662
vn 0.524480 -0.089912 0.846662
vn 0.524481 -0.089911 0.846661
vn 0.524481 -0.089911 0.846662
vn 0.524481 -0.089910 0.846662
vn 0.524481 -0.089911 0.846662
vn 0.524480 -0.089912 0.846662
vn 0.524480 -0.089911 0.846662
vn 0.524480 -0.089911 0.846662
vn 0.524480 -0.089911 0.846662
vn 0.524480 -0.089911 0.846662
vn 0.524481 -0.089912 0.846661
vn 0.524481 -0.089911 0.846662
vn 0.524480 -0.089911 0.846662
vn 0.524481 -0.089911 0.846662
vn 0.524481 -0.089911 0.846661
vn 0.524479 -0.089910 0.846663
vn 0.524481 -0.089911 0.846661
vn 0.524481 -0.089911 0.846662
vn 0.524481 -0.089912 0.846661
vn 0.524480 -0.089911 0.846662
vn 0.524480 -0.089911 0.846662
vn 0.524481 -0.089911 0.846661
vn 0.524480 -0.089911 0.846662
vn 0.524480 -0.089910 0.846662
vn 0.524481 -0.089911 0.846662
vn 0.524481 -0.089911 0.846661
vn 0.524481 -0.089912 0.846662
vn 0.524480 -0.089911 0.846662
vn 0.524481 -0.089911 0.846661
vn 0.524480 -0.089910 0.846662
vn 0.524481 -0.089910 0.846662
vn 0.524481 -0.089910 0.846662
vn 0.524480 -0.089910 0.846662
vn 0.524481 -0.089911 0.846661
vn 0.524480 -0.089911 0.846662
vn 0.524481 -0.089913 0.846661
vn 0.524480 -0.089911 0.846662
vn 0.524480 -0.089911 0.846662
vn 0.524481 -0.089912 0.846661
vn 0.524480 -0.089910 0.846662
vn 0.524482 -0.089911 0.846661
vn 0.524481 -0.089911 0.846662
vn 0.524481 -0.089912 0.846661
vn 0.524481 -0.089910 0.846662
vn 0.524480 -0.089911 0.846662
vn 0.524480 -0.089911 0.846662
vn 0.524481 -0.089911 0.846662
vn 0.524481 -0.089911 0.846662
vn 0.524480 -0.089911 0.846662
vn 0.524480 -0.089911 0.846662
vn 0.524482 -0.089910 0.846661
vn 0.524480 -0.089910 0.846662
vn 0.524481 -0.089912 0.846662
vn 0.524480 -0.089912 0.846662
vn 0.524480 -0.089910 0.846662
vn 0.524480 -0.089910 0.846662
vn 0.524480 -0.089911 0.846662
vn 0.524482 -0.089910 0.846661
vn 0.524482 -0.089911 0.846661
vn 0.524480 -0.089911 0.846662
vn 0.524481 -0.089912 0.846661
vn 0.524481 -0.089910 0.846662
vn 0.524481 -0.089911 0.846662
vn 0.524480 -0.089911 0.846662
vn 0.524480 -0.089911 0.846662
vn 0.524481 -0.089910 0.846661
vn 0.524481 -0.089912 0.846662
vn 0.524481 -0.089910 0.846662
vn 0.524481 -0.089910 0.846662
vn 0.524481 -0.089911 0.846662
vn 0.524480 -0.089910 0.846662
vn 0.524481 -0.089911 0.846662
vn 0.524482 -0.089911 0.846661
vn 0.524481 -0.089911 0.846661
vn 0.524481 -0.089912 0.846661
vn 0.524480 -0.089911 0.846662
vn 0.524481 -0.089910 0.846662
vn 0.524481 -0.089911 0.846662
vn 0.524481 -0.089911 0.846662
vn 0.524481 -0.089911 0.846661
vn 0.524480 -0.089910 0.846662
vn 0.524481 -0.089911 0.846662
vn 0.524481 -0.089911 0.846662
vn 0.524482 -0.089911 0.846661
vn 0.524481 -0.089911 0.846662
vn 0.524482 -0.089911 0.846661
vn 0.524488 -0.089904 0.846658
vn 0.524477 -0.089915 0.846664
vn 0.524478 -0.089916 0.846663
vn 0.524476 -0.089918 0.846664
vn 0.524484 -0.089908 0.846660
vn 0.524488 -0.089905 0.846658
vn 0.524477 -0.089918 0.846663
vn 0.524483 -0.089907 0.846661
vn 0.524485 -0.089909 0.846660
vn 0.524485 -0.089909 0.846659
vn 0.524481 -0.089906 0.846662
vn 0.524481 -0.089906 0.846662
vn 0.524488 -0.089908 0.846657
vn 0.524485 -0.089909 0.846659
vn 0.524482 -0.089906 0.846662
vn 0.524482 -0.089907 0.846662
vn 0.524488 -0.089910 0.846657
vn 0.524481 -0.089910 0.846662
vn 0.524480 -0.089907 0.846662
vn 0.524481 -0.089910 0.846662
vn 0.524473 -0.089911 0.846666
vn 0.524481 -0.089913 0.846661
vn 0.524481 -0.089910 0.846661
vn 0.524479 -0.089901 0.846664
vn 0.524474 -0.089908 0.846666
vn 0.524478 -0.089909 0.846664
vn 0.524477 -0.089902 0.846665
vn 0.524486 -0.089922 0.846657
vn 0.524471 -0.089905 0.846668
vn 0.524478 -0.089909 0.846664
vn 0.524486 -0.089922 0.846657
vn 0.524483 -0.089915 0.846660
vn 0.524476 -0.089908 0.846665
vn 0.524472 -0.089904 0.846668
vn 0.524483 -0.089914 0.846660
vn 0.524476 -0.089903 0.846666
vn 0.524477 -0.089908 0.846664
vn 0.524483 -0.089914 0.846660
vn 0.524474 -0.089906 0.846667
vn 0.524480 -0.089912 0.846662
vn 0.524480 -0.089910 0.846662
vn 0.524483 -0.089914 0.846660
vn 0.524480 -0.089910 0.846662
vn 0.524482 -0.089911 0.846661
vn 0.524488 -0.089915 0.846657
vn 0.524479 -0.089905 0.846663
vn 0.524489 -0.089912 0.846656
vn 0.524480 -0.089905 0.846663
vn 0.524477 -0.089910 0.846664
vn 0.524481 -0.089910 0.846662
vn 0.524477 -0.089910 0.846664
vn 0.524480 -0.089899 0.846664
vn 0.524481 -0.089910 0.846662
vn 0.524477 -0.089910 0.846664
vn 0.524483 -0.089898 0.846662
vn 0.524477 -0.089913 0.846664
vn 0.524482 -0.089906 0.846662
vn 0.524488 -0.089911 0.846657
vn 0.524488 -0.089908 0.846658
vn 0.524481 -0.089906 0.846662
vn 0.524481 -0.089906 0.846662
vn 0.524476 -0.089912 0.846664
vn 0.524481 -0.089909 0.846662
vn 0.524482 -0.089906 0.846661
vn 0.524476 -0.089912 0.846664
vn 0.524484 -0.089909 0.846660
vn 0.524485 -0.089909 0.846659
vn 0.524482 -0.089911 0.846661
vn 0.524481 -0.089910 0.846662
vn 0.524481 -0.089909 0.846662
vn 0.524476 -0.089919 0.846664
vn 0.524475 -0.089918 0.846665
vn 0.850996 0.086803 -0.517948
vn 0.850996 0.086803 -0.517948
vn 0.833394 0.257770 -0.488886
vn 0.790467 0.420907 -0.444970
vn 0.833392 0.257773 -0.488887
vn 0.790468 0.420903 -0.444973
vn 0.723523 0.571252 -0.387537
vn 0.634594 0.704244 -0.318325
vn 0.723523 0.571252 -0.387537
vn 0.634595 0.704243 -0.318326
vn 0.526383 0.815836 -0.239442
vn 0.526383 0.815836 -0.239442
vn 0.402181 0.902637 -0.153285
vn 0.402181 0.902637 -0.153285
vn 0.265751 0.962016 -0.062465
vn 0.265764 0.962012 -0.062467
vn 0.121258 0.992160 0.030251
vn 0.121266 0.992159 0.030240
vn -0.026931 0.992159 0.122044
vn -0.026917 0.992160 0.122041
vn -0.174290 0.962012 0.210132
vn -0.174282 0.962016 0.210122
vn -0.316358 0.902637 0.291828
vn -0.316357 0.902637 0.291828
vn -0.448813 0.815836 0.364662
vn -0.448814 0.815836 0.364662
vn -0.567635 0.704243 0.426418
vn -0.567634 0.704244 0.426418
vn -0.669208 0.571252 0.475217
vn -0.669208 0.571252 0.475217
vn -0.750448 0.420902 0.509577
vn -0.750445 0.420907 0.509578
vn -0.808882 0.257773 0.528453
vn -0.808884 0.257770 0.528452
vn -0.842743 0.086802 0.531271
vn -0.842743 0.086802 0.531271
vn -0.850996 -0.086801 0.517948
vn -0.850996 -0.086801 0.517948
vn -0.833392 -0.257773 0.488887
vn -0.833392 -0.257773 0.488887
vn -0.790466 -0.420907 0.444972
vn -0.790469 -0.420902 0.444972
vn -0.723523 -0.571252 0.387537
vn -0.634594 -0.704244 0.318326
vn -0.723521 -0.571258 0.387532
vn -0.634601 -0.704237 0.318326
vn -0.526390 -0.815830 0.239446
vn -0.526386 -0.815835 0.239439
vn -0.402181 -0.902637 0.153285
vn -0.265751 -0.962016 0.062465
vn -0.402181 -0.902637 0.153284
vn -0.121266 -0.992159 -0.030240
vn -0.265751 -0.962016 0.062465
vn -0.121266 -0.992159 -0.030240
vn 0.026931 -0.992159 -0.122044
vn 0.174282 -0.962016 -0.210122
vn 0.026931 -0.992159 -0.122044
vn 0.174282 -0.962016 -0.210122
vn 0.316358 -0.902637 -0.291828
vn 0.448821 -0.815830 -0.364666
vn 0.316358 -0.902637 -0.291828
vn 0.448811 -0.815836 -0.364666
vn 0.567633 -0.704243 -0.426421
vn 0.567641 -0.704237 -0.426421
vn 0.669204 -0.571258 -0.475215
vn 0.669207 -0.571252 -0.475219
vn 0.750445 -0.420907 -0.509577
vn 0.750448 -0.420903 -0.509577
vn 0.808883 -0.257773 -0.528452
vn 0.808883 -0.257774 -0.528452
vn 0.842743 -0.086803 -0.531271
vn 0.842743 -0.086802 -0.531271
vn -0.850996 -0.086801 0.517948
vn -0.850996 -0.086805 0.517948
vn -0.833393 -0.257770 0.488887
vn -0.790467 -0.420905 0.444972
vn -0.833393 -0.257768 0.488888
vn -0.790467 -0.420905 0.444972
vn -0.723521 -0.571256 0.387534
vn -0.634596 -0.704241 0.318326
vn -0.723521 -0.571257 0.387534
vn -0.526387 -0.815833 0.239443
vn -0.634596 -0.704241 0.318326
vn -0.526388 -0.815832 0.239444
vn -0.402180 -0.902638 0.153282
vn -0.402181 -0.902638 0.153283
vn -0.265766 -0.962011 0.062473
vn -0.265747 -0.962017 0.062462
vn -0.121268 -0.992159 -0.030239
vn -0.121250 -0.992161 -0.030252
vn 0.026913 -0.992161 -0.122034
vn 0.026933 -0.992159 -0.122045
vn 0.174296 -0.962011 -0.210131
vn 0.174277 -0.962017 -0.210121
vn 0.316355 -0.902638 -0.291828
vn 0.316355 -0.902638 -0.291828
vn 0.448817 -0.815832 -0.364666
vn 0.448818 -0.815831 -0.364666
vn 0.567635 -0.704243 -0.426419
vn 0.567635 -0.704242 -0.426419
vn 0.669205 -0.571257 -0.475216
vn 0.669205 -0.571257 -0.475216
vn 0.750447 -0.420906 -0.509577
vn 0.750448 -0.420904 -0.509577
vn 0.808884 -0.257768 -0.528452
vn 0.808883 -0.257771 -0.528452
vn 0.842743 -0.086805 -0.531271
vn 0.842743 -0.086803 -0.531271
vn 0.850996 0.086803 -0.517948
vn 0.850996 0.086803 -0.517948
vn 0.833392 0.257776 -0.488886
vn 0.833394 0.257767 -0.488888
vn 0.790467 0.420905 -0.444972
vn 0.723521 0.571257 -0.387534
vn 0.790467 0.420906 -0.444972
vn 0.723520 0.571258 -0.387534
vn 0.634596 0.704242 -0.318326
vn 0.634596 0.704242 -0.318326
vn 0.526388 0.815833 -0.239443
vn 0.402181 0.902638 -0.153283
vn 0.526388 0.815832 -0.239444
vn 0.402180 0.902638 -0.153282
vn 0.265766 0.962011 -0.062473
vn 0.121250 0.992161 0.030252
vn 0.265766 0.962011 -0.062473
vn 0.121250 0.992161 0.030252
vn -0.026913 0.992161 0.122034
vn -0.026913 0.992161 0.122034
vn -0.174296 0.962011 0.210132
vn -0.316355 0.902638 0.291828
vn -0.174296 0.962011 0.210132
vn -0.316356 0.902638 0.291828
vn -0.448817 0.815832 0.364666
vn -0.448818 0.815832 0.364666
vn -0.567636 0.704242 0.426420
vn -0.567635 0.704242 0.426419
vn -0.669205 0.571257 0.475216
vn -0.669204 0.571257 0.475216
vn -0.750447 0.420906 0.509576
vn -0.750448 0.420904 0.509577
vn -0.808882 0.257776 0.528452
vn -0.808885 0.257768 0.528452
vn -0.842743 0.086803 0.531271
vn -0.842743 0.086801 0.531271
vn -0.524480 0.089911 -0.846662
vn -0.524480 0.089911 -0.846662
vn -0.524480 0.089911 -0.846662
vn -0.524482 0.089911 -0.846661
vn -0.524480 0.089911 -0.846662
vn -0.524480 0.089911 -0.846662
vn -0.524481 0.089911 -0.846662
vn -0.524481 0.089911 -0.846661
vn -0.524480 0.089910 -0.846662
vn -0.524480 0.089912 -0.846662
vn -0.524480 0.089912 -0.846662
vn -0.524481 0.089912 -0.846662
vn -0.524481 0.089911 -0.846661
vn -0.524481 0.089910 -0.846662
vn -0.524480 0.089911 -0.846662
vn -0.524481 0.089911 -0.846662
vn -0.524481 0.089910 -0.846662
vn -0.524481 0.089910 -0.846662
vn -0.524481 0.089911 -0.846662
vn -0.524481 0.089911 -0.846661
vn -0.524480 0.089911 -0.846662
vn -0.524481 0.089913 -0.846661
vn -0.524480 0.089911 -0.846662
vn -0.524480 0.089911 -0.846662
vn -0.524481 0.089911 -0.846662
vn -0.524480 0.089910 -0.846662
vn -0.524481 0.089911 -0.846661
vn -0.524480 0.089911 -0.846662
vn -0.524480 0.089911 -0.846662
vn -0.524480 0.089911 -0.846662
vn -0.524480 0.089911 -0.846662
vn -0.524480 0.089911 -0.846662
vn -0.524481 0.089911 -0.846661
vn -0.524481 0.089911 -0.846662
vn -0.524481 0.089911 -0.846662
vn -0.524480 0.089911 -0.846662
vn -0.524480 0.089911 -0.846662
vn -0.524480 0.089911 -0.846662
vn -0.524481 0.089911 -0.846662
vn -0.524481 0.089911 -0.846662
vn -0.524482 0.089910 -0.846661
vn -0.524481 0.089910 -0.846662
vn -0.524481 0.089911 -0.846662
vn -0.524481 0.089912 -0.846661
vn -0.524481 0.089911 -0.846662
vn -0.524480 0.089911 -0.846662
vn -0.524481 0.089911 -0.846661
vn -0.524480 0.089912 -0.846662
vn -0.524481 0.089911 -0.846661
vn -0.524482 0.089911 -0.846661
vn -0.524481 0.089911 -0.846662
vn -0.524481 0.089911 -0.846662
vn -0.524480 0.089911 -0.846662
vn -0.524481 0.089912 -0.846662
vn -0.524481 0.089910 -0.846662
vn -0.524481 0.089910 -0.846662
vn -0.524481 0.089911 -0.846661
vn -0.524481 0.089911 -0.846661
vn -0.524480 0.089911 -0.846662
vn -0.524481 0.089911 -0.846661
vn -0.524480 0.089911 -0.846662
vn -0.524481 0.089910 -0.846662
vn -0.524481 0.089910 -0.846662
vn -0.524481 0.089910 -0.846662
vn -0.524481 0.089912 -0.846662
vn -0.524481 0.089911 -0.846661
vn -0.524480 0.089911 -0.846662
vn -0.524482 0.089911 -0.846661
vn -0.524481 0.089911 -0.846662
vn -0.524481 0.089911 -0.846661
vn -0.524481 0.089910 -0.846662
vn -0.524480 0.089910 -0.846662
vn -0.524481 0.089911 -0.846661
vn -0.524481 0.089910 -0.846662
vn -0.524480 0.089910 -0.846662
vn -0.524479 0.089909 -0.846663
vn -0.524481 0.089911 -0.846662
vn -0.524481 0.089912 -0.846662
vn -0.524482 0.089912 -0.846660
vn -0.524481 0.089910 -0.846661
vn -0.524482 0.089912 -0.846660
vn -0.524481 0.089910 -0.846662
vn -0.524480 0.089910 -0.846662
vn -0.524480 0.089910 -0.846662
vn -0.524481 0.089910 -0.846662
vn -0.524481 0.089912 -0.846661
vn -0.524480 0.089910 -0.846662
vn -0.524481 0.089910 -0.846662
vn -0.524481 0.089910 -0.846662
vn -0.524481 0.089913 -0.846661
vn -0.524480 0.089911 -0.846662
vn -0.524481 0.089911 -0.846661
vn -0.524480 0.089910 -0.846662
vn -0.524480 0.089911 -0.846662
vn -0.524482 0.089910 -0.846661
vn -0.524482 0.089910 -0.846661
vn -0.524481 0.089910 -0.846662
vn -0.524481 0.089910 -0.846662
vn -0.524481 0.089911 -0.846662
vn -0.524478 0.089911 -0.846663
vn -0.524480 0.089912 -0.846662
vn -0.524482 0.089910 -0.846661
vn -0.524481 0.089910 -0.846662
vn -0.524483 0.089910 -0.846660
vn -0.524480 0.089912 -0.846662
vn -0.524480 0.089913 -0.846662
vn -0.524480 0.089911 -0.846662
vn -0.524481 0.089910 -0.846662
vn -0.524480 0.089913 -0.846662
vn -0.524480 0.089911 -0.846662
vn -0.524482 0.089910 -0.846661
vn -0.524480 0.089913 -0.846662
vn -0.524480 0.089913 -0.846662
vn -0.524481 0.089912 -0.846661
vn -0.524481 0.089910 -0.846661
vn -0.524481 0.089909 -0.846661
vn -0.524481 0.089911 -0.846662
vn -0.524482 0.089911 -0.846661
vn -0.524481 0.089910 -0.846662
vn -0.524482 0.089913 -0.846661
vn -0.524478 0.089911 -0.846663
vn -0.524480 0.089911 -0.846662
vn -0.524480 0.089911 -0.846662
vn -0.524482 0.089911 -0.846661
vn -0.524481 0.089910 -0.846662
vn -0.524482 0.089912 -0.846661
vn -0.524480 0.089908 -0.846662
vn -0.524481 0.089910 -0.846662
vn -0.524482 0.089913 -0.846661
vn -0.524481 0.089910 -0.846661
vn -0.524480 0.089910 -0.846662
vn -0.524481 0.089910 -0.846662
vn -0.524481 0.089911 -0.846661
vn -0.524481 0.089911 -0.846662
vn -0.524481 0.089911 -0.846662
vn -0.524480 0.089910 -0.846662
vn -0.524480 0.089910 -0.846662
vn -0.524481 0.089913 -0.846661
vn -0.524481 0.089911 -0.846662
vn -0.524482 0.089911 -0.846661
vn -0.524481 0.089910 -0.846662
vn -0.524480 0.089912 -0.846662
vn -0.524481 0.089912 -0.846661
vn -0.524480 0.089911 -0.846662
vn 0.850996 0.086804 -0.517948
vn 0.850997 0.086802 -0.517948
vn 0.833393 0.257769 -0.488887
vn 0.833393 0.257770 -0.488887
vn 0.790467 0.420907 -0.444971
vn 0.723523 0.571254 -0.387535
vn 0.790467 0.420907 -0.444971
vn 0.634594 0.704245 -0.318323
vn 0.723522 0.571255 -0.387535
vn 0.634594 0.704245 -0.318324
vn 0.526395 0.815827 -0.239448
vn 0.526385 0.815835 -0.239443
vn 0.402187 0.902634 -0.153288
vn 0.402176 0.902640 -0.153279
vn 0.265752 0.962016 -0.062464
vn 0.265765 0.962011 -0.062474
vn 0.121259 0.992160 0.030245
vn 0.121259 0.992160 0.030245
vn -0.026923 0.992160 0.122039
vn -0.026923 0.992160 0.122039
vn -0.174297 0.962011 0.210131
vn -0.174281 0.962016 0.210124
vn -0.316351 0.902640 0.291826
vn -0.316365 0.902634 0.291832
vn -0.448824 0.815827 0.364668
vn -0.448813 0.815835 0.364664
vn -0.567632 0.704245 0.426418
vn -0.567633 0.704244 0.426419
vn -0.669207 0.571254 0.475217
vn -0.669206 0.571255 0.475217
vn -0.750446 0.420906 0.509577
vn -0.750446 0.420908 0.509576
vn -0.808884 0.257768 0.528452
vn -0.808883 0.257770 0.528452
vn -0.842743 0.086802 0.531271
vn -0.842743 0.086805 0.531271
vn -0.850997 -0.086803 0.517948
vn -0.850997 -0.086803 0.517948
vn -0.833393 -0.257770 0.488887
vn -0.790466 -0.420908 0.444971
vn -0.833393 -0.257770 0.488887
vn -0.790467 -0.420907 0.444971
vn -0.723523 -0.571254 0.387536
vn -0.723522 -0.571255 0.387535
vn -0.634594 -0.704245 0.318323
vn -0.526395 -0.815826 0.239448
vn -0.634594 -0.704245 0.318324
vn -0.526385 -0.815835 0.239443
vn -0.402176 -0.902641 0.153279
vn -0.265766 -0.962011 0.062473
vn -0.402188 -0.902634 0.153289
vn -0.265752 -0.962016 0.062465
vn -0.121259 -0.992160 -0.030245
vn 0.026923 -0.992160 -0.122039
vn -0.121259 -0.992160 -0.030245
vn 0.026923 -0.992160 -0.122039
vn 0.174296 -0.962011 -0.210132
vn 0.316350 -0.902641 -0.291826
vn 0.174282 -0.962016 -0.210122
vn 0.448825 -0.815827 -0.364668
vn 0.316364 -0.902634 -0.291832
vn 0.448813 -0.815835 -0.364664
vn 0.567633 -0.704244 -0.426419
vn 0.669206 -0.571255 -0.475217
vn 0.567632 -0.704245 -0.426418
vn 0.669207 -0.571254 -0.475217
vn 0.750446 -0.420907 -0.509576
vn 0.808884 -0.257770 -0.528452
vn 0.750446 -0.420908 -0.509576
vn 0.808884 -0.257769 -0.528452
vn 0.842743 -0.086803 -0.531271
vn 0.842743 -0.086803 -0.531271
f 1//1 2//1 3//1
f 1//2 3//2 4//2
f 5//3 3//3 6//3
f 5//4 6//4 7//4
f 5//5 4//5 3//5
f 8//6 9//6 10//6
f 8//7 10//7 2//7
f 8//8 2//8 1//8
f 11//9 7//9 12//9
f 11//10 5//10 7//10
f 13//11 9//11 8//11
f 14//12 11//12 12//12
f 14//13 12//13 15//13
f 16//14 9//14 13//14
f 16//15 17//15 9//15
f 18//16 14//16 15//16
f 19//17 17//17 16//17
f 19//18 20//18 21//18
f 19//19 21//19 17//19
f 22//20 18//20 15//20
f 22//21 15//21 23//21
f 24//22 20//22 19//22
f 25//23 22//23 23//23
f 26//24 22//24 25//24
f 27//25 28//25 20//25
f 27//26 20//26 24//26
f 29//27 28//27 27//27
f 30//28 26//28 25//28
f 30//29 25//29 31//29
f 32//30 29//30 27//30
f 33//31 30//31 31//31
f 33//32 31//32 34//32
f 35//33 36//33 29//33
f 35//34 29//34 32//34
f 37//35 36//35 35//35
f 38//36 33//36 34//36
f 38//37 39//37 33//37
f 40//38 36//38 37//38
f 41//39 39//39 38//39
f 42//40 40//40 37//40
f 43//41 41//41 38//41
f 44//42 40//42 42//42
f 45//43 44//43 42//43
f 46//44 41//44 43//44
f 46//45 47//45 41//45
f 48//46 44//46 45//46
f 49//47 47//47 46//47
f 49//48 50//48 47//48
f 51//49 45//49 52//49
f 51//50 48//50 45//50
f 53//51 54//51 55//51
f 53//52 55//52 50//52
f 53//53 50//53 49//53
f 56//54 57//54 58//54
f 56//55 52//55 57//55
f 56//56 51//56 52//56
f 59//57 54//57 53//57
f 60//58 58//58 61//58
f 60//59 56//59 58//59
f 62//60 60//60 61//60
f 63//61 64//61 54//61
f 63//62 65//62 64//62
f 63//63 54//63 59//63
f 66//64 65//64 63//64
f 67//65 62//65 61//65
f 67//66 68//66 69//66
f 67//67 61//67 68//67
f 70//68 65//68 66//68
f 70//69 71//69 65//69
f 70//70 69//70 71//70
f 72//71 67//71 69//71
f 72//72 69//72 70//72
f 3//73 73//73 74//73
f 2//74 75//74 73//74
f 2//75 73//75 3//75
f 6//76 3//76 74//76
f 10//77 76//77 75//77
f 10//78 75//78 2//78
f 7//79 74//79 77//79
f 7//80 77//80 78//80
f 7//81 6//81 74//81
f 9//82 79//82 76//82
f 9//83 76//83 10//83
f 12//84 7//84 78//84
f 17//85 80//85 79//85
f 17//86 79//86 9//86
f 15//87 12//87 78//87
f 15//88 78//88 81//88
f 21//89 82//89 80//89
f 21//90 80//90 17//90
f 23//91 15//91 81//91
f 23//92 81//92 83//92
f 20//93 84//93 82//93
f 20//94 82//94 21//94
f 25//95 23//95 83//95
f 25//96 83//96 85//96
f 28//97 86//97 84//97
f 28//98 84//98 20//98
f 31//99 25//99 85//99
f 31//100 85//100 87//100
f 29//101 86//101 28//101
f 29//102 88//102 86//102
f 34//103 31//103 87//103
f 34//104 87//104 89//104
f 36//105 90//105 88//105
f 36//106 88//106 29//106
f 38//107 34//107 89//107
f 40//108 90//108 36//108
f 91//109 38//109 89//109
f 92//110 90//110 40//110
f 43//111 38//111 91//111
f 93//112 43//112 91//112
f 94//113 40//113 44//113
f 94//114 92//114 40//114
f 46//115 43//115 93//115
f 95//116 46//116 93//116
f 96//117 44//117 48//117
f 96//118 94//118 44//118
f 97//119 46//119 95//119
f 97//120 49//120 46//120
f 98//121 51//121 56//121
f 98//122 48//122 51//122
f 98//123 96//123 48//123
f 99//124 98//124 56//124
f 100//125 59//125 53//125
f 100//126 53//126 49//126
f 100//127 49//127 97//127
f 101//128 56//128 60//128
f 101//129 99//129 56//129
f 102//130 59//130 100//130
f 103//131 101//131 60//131
f 103//132 60//132 62//132
f 104//133 59//133 102//133
f 104//134 63//134 59//134
f 105//135 103//135 62//135
f 105//136 67//136 72//136
f 105//137 62//137 67//137
f 106//138 66//138 63//138
f 106//139 63//139 104//139
f 107//140 70//140 66//140
f 107//141 66//141 106//141
f 108//142 105//142 72//142
f 108//143 70//143 107//143
f 108//144 72//144 70//144
f 109//145 1//145 4//145
f 109//146 4//146 110//146
f 5//147 110//147 4//147
f 111//148 110//148 5//148
f 112//149 8//149 1//149
f 112//150 1//150 109//150
f 11//151 111//151 5//151
f 113//152 111//152 11//152
f 114//153 13//153 8//153
f 114//154 8//154 112//154
f 115//155 11//155 14//155
f 115//156 113//156 11//156
f 116//157 16//157 13//157
f 116//158 13//158 114//158
f 117//159 115//159 14//159
f 117//160 14//160 18//160
f 118//161 16//161 116//161
f 118//162 19//162 16//162
f 119//163 117//163 18//163
f 119//164 18//164 22//164
f 120//165 24//165 19//165
f 120//166 19//166 118//166
f 121//167 119//167 22//167
f 121//168 22//168 26//168
f 122//169 24//169 120//169
f 122//170 27//170 24//170
f 123//171 121//171 26//171
f 123//172 26//172 30//172
f 124//173 32//173 27//173
f 124//174 27//174 122//174
f 33//175 123//175 30//175
f 125//176 123//176 33//176
f 126//177 35//177 32//177
f 126//178 32//178 124//178
f 39//179 125//179 33//179
f 39//180 127//180 125//180
f 37//181 35//181 126//181
f 37//182 126//182 128//182
f 41//183 127//183 39//183
f 41//184 129//184 127//184
f 42//185 128//185 130//185
f 42//186 37//186 128//186
f 131//187 42//187 130//187
f 47//188 129//188 41//188
f 47//189 132//189 129//189
f 45//190 42//190 131//190
f 133//191 132//191 47//191
f 134//192 45//192 131//192
f 50//193 133//193 47//193
f 52//194 45//194 134//194
f 135//195 133//195 50//195
f 57//196 134//196 136//196
f 57//197 52//197 134//197
f 55//198 135//198 50//198
f 137//199 57//199 136//199
f 138//200 135//200 55//200
f 58//201 57//201 137//201
f 54//202 138//202 55//202
f 139//203 138//203 54//203
f 61//204 137//204 140//204
f 61//205 58//205 137//205
f 64//206 139//206 54//206
f 68//207 140//207 141//207
f 68//208 61//208 140//208
f 65//209 139//209 64//209
f 65//210 142//210 139//210
f 71//211 142//211 65//211
f 71//212 143//212 142//212
f 71//213 144//213 143//213
f 69//214 68//214 141//214
f 69//215 141//215 144//215
f 69//216 144//216 71//216
f 100//217 145//217 146//217
f 102//218 100//218 146//218
f 104//219 146//219 147//219
f 104//220 147//220 148//220
f 104//221 102//221 146//221
f 106//222 104//222 148//222
f 107//223 148//223 149//223
f 107//224 149//224 150//224
f 107//225 106//225 148//225
f 108//226 107//226 150//226
f 105//227 108//227 150//227
f 105//228 150//228 151//228
f 103//229 105//229 151//229
f 103//230 151//230 152//230
f 101//231 103//231 152//231
f 101//232 152//232 153//232
f 101//233 153//233 154//233
f 99//234 101//234 154//234
f 98//235 99//235 154//235
f 98//236 154//236 155//236
f 98//237 155//237 156//237
f 96//238 98//238 156//238
f 94//239 96//239 156//239
f 94//240 156//240 157//240
f 92//241 94//241 157//241
f 92//242 157//242 158//242
f 90//243 92//243 158//243
f 90//244 158//244 159//244
f 88//245 90//245 159//245
f 88//246 159//246 160//246
f 86//247 88//247 160//247
f 86//248 160//248 161//248
f 84//249 86//249 161//249
f 84//250 161//250 162//250
f 82//251 84//251 162//251
f 82//252 162//252 163//252
f 80//253 163//253 164//253
f 80//254 82//254 163//254
f 79//255 164//255 165//255
f 79//256 80//256 164//256
f 79//257 165//257 166//257
f 76//258 79//258 166//258
f 75//259 166//259 167//259
f 75//260 167//260 168//260
f 75//261 76//261 166//261
f 73//262 75//262 168//262
f 74//263 168//263 169//263
f 74//264 73//264 168//264
f 77//265 169//265 170//265
f 77//266 170//266 171//266
f 77//267 74//267 169//267
f 78//268 171//268 172//268
f 78//269 77//269 171//269
f 81//270 78//270 172//270
f 83//271 172//271 173//271
f 83//272 173//272 174//272
f 83//273 81//273 172//273
f 85//274 83//274 174//274
f 87//275 174//275 175//275
f 87//276 175//276 176//276
f 87//277 85//277 174//277
f 89//278 87//278 176//278
f 89//279 176//279 177//279
f 91//280 89//280 177//280
f 93//281 91//281 177//281
f 93//282 177//282 178//282
f 93//283 178//283 179//283
f 95//284 93//284 179//284
f 97//285 95//285 179//285
f 97//286 179//286 180//286
f 100//287 97//287 180//287
f 100//288 180//288 145//288
f 181//289 135//289 182//289
f 135//290 138//290 182//290
f 182//291 139//291 183//291
f 183//292 139//292 184//292
f 138//293 139//293 182//293
f 139//294 142//294 184//294
f 184//295 143//295 185//295
f 185//296 143//296 186//296
f 142//297 143//297 184//297
f 186//298 144//298 187//298
f 143//299 144//299 186//299
f 144//300 141//300 187//300
f 141//301 140//301 187//301
f 187//302 140//302 188//302
f 140//303 137//303 188//303
f 188//304 137//304 189//304
f 189//305 137//305 190//305
f 137//306 136//306 190//306
f 136//307 134//307 190//307
f 190//308 134//308 191//308
f 134//309 131//309 191//309
f 191//310 131//310 192//310
f 131//311 130//311 192//311
f 192//312 130//312 193//312
f 130//313 128//313 193//313
f 193//314 128//314 194//314
f 194//315 128//315 195//315
f 128//316 126//316 195//316
f 195//317 126//317 196//317
f 126//318 124//318 196//318
f 124//319 122//319 196//319
f 196//320 122//320 197//320
f 122//321 120//321 197//321
f 197//322 120//322 198//322
f 120//323 118//323 198//323
f 198//324 118//324 199//324
f 199//325 116//325 200//325
f 118//326 116//326 199//326
f 200//327 116//327 201//327
f 116//328 114//328 201//328
f 201//329 112//329 202//329
f 202//330 112//330 203//330
f 114//331 112//331 201//331
f 112//332 109//332 203//332
f 109//333 110//333 203//333
f 203//334 110//334 204//334
f 204//335 110//335 205//335
f 205//336 111//336 206//336
f 110//337 111//337 205//337
f 111//338 113//338 206//338
f 206//339 115//339 207//339
f 207//340 115//340 208//340
f 113//341 115//341 206//341
f 115//342 117//342 208//342
f 208//343 119//343 209//343
f 117//344 119//344 208//344
f 209//345 121//345 210//345
f 210//346 121//346 211//346
f 119//347 121//347 209//347
f 121//348 123//348 211//348
f 123//349 125//349 211//349
f 211//350 125//350 212//350
f 125//351 127//351 212//351
f 212//352 127//352 213//352
f 213//353 127//353 214//353
f 127//354 129//354 214//354
f 129//355 132//355 214//355
f 214//356 132//356 215//356
f 215//357 132//357 216//357
f 132//358 133//358 216//358
f 133//359 135//359 216//359
f 216//360 135//360 181//360
f 168//361 217//361 169//361
f 167//362 218//362 168//362
f 168//363 218//363 217//363
f 217//364 219//364 169//364
f 166//365 220//365 167//365
f 167//366 220//366 218//366
f 169//367 221//367 170//367
f 170//368 221//368 171//368
f 219//369 221//369 169//369
f 164//370 222//370 165//370
f 165//371 222//371 166//371
f 166//372 222//372 220//372
f 221//373 223//373 171//373
f 164//374 224//374 222//374
f 171//375 225//375 172//375
f 223//376 225//376 171//376
f 164//377 226//377 224//377
f 163//378 226//378 164//378
f 225//379 227//379 172//379
f 172//380 227//380 173//380
f 162//381 228//381 163//381
f 163//382 228//382 226//382
f 227//383 229//383 173//383
f 173//384 229//384 174//384
f 161//385 230//385 162//385
f 162//386 230//386 228//386
f 229//387 231//387 174//387
f 174//388 231//388 175//388
f 160//389 232//389 161//389
f 161//390 232//390 230//390
f 160//391 159//391 232//391
f 231//392 233//392 175//392
f 175//393 233//393 176//393
f 159//394 234//394 232//394
f 233//395 235//395 176//395
f 235//396 177//396 176//396
f 159//397 158//397 234//397
f 234//398 158//398 236//398
f 235//399 178//399 177//399
f 237//400 178//400 235//400
f 236//401 157//401 238//401
f 158//402 157//402 236//402
f 237//403 179//403 178//403
f 239//404 179//404 237//404
f 238//405 156//405 240//405
f 157//406 156//406 238//406
f 239//407 241//407 179//407
f 241//408 180//408 179//408
f 240//409 155//409 242//409
f 156//410 155//410 240//410
f 243//411 154//411 244//411
f 242//412 154//412 243//412
f 155//413 154//413 242//413
f 245//414 145//414 246//414
f 241//415 145//415 180//415
f 246//416 145//416 241//416
f 154//417 153//417 244//417
f 245//418 146//418 145//418
f 153//419 152//419 244//419
f 247//420 152//420 248//420
f 244//421 152//421 247//421
f 249//422 147//422 245//422
f 250//423 147//423 249//423
f 245//424 147//424 146//424
f 250//425 148//425 147//425
f 152//426 151//426 248//426
f 250//427 149//427 148//427
f 251//428 149//428 250//428
f 151//429 150//429 248//429
f 251//430 150//430 149//430
f 252//431 150//431 251//431
f 248//432 150//432 252//432
f 253//433 204//433 254//433
f 253//434 203//434 204//434
f 254//435 205//435 255//435
f 204//436 205//436 254//436
f 256//437 202//437 257//437
f 257//438 202//438 253//438
f 253//439 202//439 203//439
f 255//440 206//440 258//440
f 205//441 206//441 255//441
f 256//442 201//442 202//442
f 206//443 207//443 258//443
f 258//444 207//444 259//444
f 259//445 207//445 260//445
f 256//446 200//446 201//446
f 261//447 200//447 256//447
f 207//448 208//448 260//448
f 262//449 199//449 263//449
f 263//450 199//450 261//450
f 261//451 199//451 200//451
f 260//452 209//452 264//452
f 208//453 209//453 260//453
f 262//454 198//454 199//454
f 209//455 210//455 264//455
f 264//456 210//456 265//456
f 262//457 197//457 198//457
f 266//458 197//458 262//458
f 266//459 267//459 197//459
f 210//460 211//460 265//460
f 265//461 211//461 268//461
f 267//462 196//462 197//462
f 268//463 212//463 269//463
f 211//464 212//464 268//464
f 270//465 195//465 267//465
f 267//466 195//466 196//466
f 270//467 194//467 195//467
f 212//468 271//468 269//468
f 213//469 271//469 212//469
f 270//470 272//470 194//470
f 272//471 193//471 194//471
f 213//472 273//472 271//472
f 214//473 273//473 213//473
f 272//474 274//474 193//474
f 214//475 275//475 273//475
f 215//476 275//476 214//476
f 193//477 276//477 192//477
f 274//478 276//478 193//478
f 215//479 277//479 275//479
f 216//480 277//480 215//480
f 192//481 278//481 191//481
f 276//482 278//482 192//482
f 190//483 279//483 189//483
f 191//484 279//484 190//484
f 278//485 279//485 191//485
f 216//486 280//486 277//486
f 181//487 280//487 216//487
f 279//488 281//488 189//488
f 182//489 282//489 181//489
f 183//490 282//490 182//490
f 181//491 282//491 280//491
f 281//492 283//492 189//492
f 189//493 283//493 188//493
f 183//494 284//494 282//494
f 183//495 285//495 284//495
f 184//496 285//496 183//496
f 283//497 286//497 188//497
f 188//498 286//498 187//498
f 184//499 287//499 285//499
f 185//500 287//500 184//500
f 186//501 287//501 185//501
f 286//502 288//502 187//502
f 186//503 288//503 287//503
f 187//504 288//504 186//504
f 245//505 246//505 280//505
f 245//506 280//506 282//506
f 245//507 282//507 284//507
f 249//508 245//508 284//508
f 250//509 284//509 285//509
f 250//510 285//510 287//510
f 250//511 249//511 284//511
f 251//512 287//512 288//512
f 251//513 250//513 287//513
f 252//514 251//514 288//514
f 248//515 252//515 288//515
f 248//516 288//516 286//516
f 248//517 286//517 283//517
f 247//518 248//518 283//518
f 247//519 283//519 281//519
f 244//520 247//520 281//520
f 243//521 244//521 281//521
f 243//522 281//522 279//522
f 242//523 243//523 279//523
f 242//524 279//524 278//524
f 240//525 242//525 278//525
f 240//526 278//526 276//526
f 238//527 240//527 276//527
f 238//528 276//528 274//528
f 236//529 238//529 274//529
f 236//530 274//530 272//530
f 234//531 236//531 272//531
f 234//532 272//532 270//532
f 232//533 234//533 270//533
f 232//534 270//534 267//534
f 232//535 267//535 266//535
f 230//536 232//536 266//536
f 228//537 230//537 266//537
f 228//538 266//538 262//538
f 228//539 262//539 263//539
f 226//540 228//540 263//540
f 224//541 263//541 261//541
f 224//542 226//542 263//542
f 224//543 261//543 256//543
f 222//544 256//544 257//544
f 222//545 224//545 256//545
f 220//546 222//546 257//546
f 218//547 257//547 253//547
f 218//548 220//548 257//548
f 217//549 253//549 254//549
f 217//550 254//550 255//550
f 217//551 218//551 253//551
f 219//552 217//552 255//552
f 221//553 255//553 258//553
f 221//554 258//554 259//554
f 221//555 219//555 255//555
f 223//556 221//556 259//556
f 225//557 259//557 260//557
f 225//558 260//558 264//558
f 225//559 223//559 259//559
f 227//560 225//560 264//560
f 229//561 264//561 265//561
f 229//562 265//562 268//562
f 229//563 227//563 264//563
f 231//564 268//564 269//564
f 231//565 229//565 268//565
f 233//566 231//566 269//566
f 235//567 269//567 271//567
f 235//568 271//568 273//568
f 235//569 233//569 269//569
f 237//570 235//570 273//570
f 239//571 273//571 275//571
f 239//572 275//572 277//572
f 239//573 237//573 273//573
f 241//574 239//574 277//574
f 246//575 241//575 277//575
f 246//576 277//576 280//576
