# Created by FreeCAD <https://www.freecad.org>
v 549.403076 240.410431 -11.002159
v 550.594177 235.742523 -7.990706
v 553.017029 238.096893 -8.851162
v 547.561707 238.621094 -10.348213
v 547.787415 233.752579 -7.428716
v 550.896729 242.422348 -11.863070
v 554.982361 240.744171 -9.983938
v 545.428528 237.108734 -9.921101
v 544.681946 232.187531 -7.182266
v 551.997253 244.595749 -12.904784
v 556.430481 243.603912 -11.354616
v 557.317322 246.589218 -12.921549
v 543.068420 235.919296 -9.733799
v 552.671265 246.864578 -14.095654
v 540.553040 235.088928 -9.792000
v 541.372253 231.094940 -7.258846
v 552.898254 249.159912 -15.399492
v 557.615967 249.609375 -14.637126
v 537.958801 234.642853 -10.093934
v 534.545410 230.444519 -8.362042
v 537.958801 230.507980 -7.656129
v 552.671265 251.411987 -16.776684
v 557.317322 252.572647 -16.449219
v 535.364624 234.594620 -10.630428
v 551.997253 253.552399 -18.185383
v 556.430481 255.388962 -18.302771
v 532.849243 234.945694 -11.385181
v 531.235718 230.906464 -9.355139
v 550.896729 255.516083 -19.582787
v 554.982361 257.972778 -20.141460
v 530.489136 235.685410 -12.335260
v 528.130249 231.879776 -10.605242
v 549.403076 257.243408 -20.926437
v 553.017029 260.245575 -21.909422
v 528.355957 236.791306 -13.451797
v 525.323486 233.334900 -12.074369
v 526.514587 238.229767 -14.700867
v 550.594177 262.138275 -23.552935
v 547.561707 258.681854 -22.175507
v 522.900574 235.227615 -13.717882
v 545.428528 259.787750 -23.292044
v 525.020935 239.957077 -16.044518
v 547.787415 263.593384 -25.022062
v 520.935242 237.500397 -15.485843
v 523.920349 241.920776 -17.441921
v 544.681946 264.566711 -26.272165
v 543.068420 260.527466 -24.242123
v 519.487183 240.084213 -17.324533
v 540.553040 260.878571 -24.996876
v 541.372253 265.028656 -27.265261
v 537.958801 260.830322 -25.533369
v 518.600342 242.900528 -19.178083
v 523.246399 244.061188 -18.850620
v 537.958801 264.965179 -27.971174
v 518.301697 245.863785 -20.990177
v 523.019409 246.313263 -20.227812
v 523.246399 248.608597 -21.531651
v 534.545410 264.378235 -28.368458
v 535.364624 260.384247 -25.835304
v 532.849243 259.553864 -25.893505
v 518.600342 248.883957 -22.705755
v 531.235718 263.285645 -28.445038
v 519.487183 251.869263 -24.272688
v 523.920349 250.877426 -22.722519
v 528.130249 261.720581 -28.198587
v 530.489136 258.364441 -25.706203
v 520.935242 254.729004 -25.643366
v 525.020935 253.050827 -23.764235
v 526.514587 255.062744 -24.625145
v 525.323486 259.730652 -27.636597
v 528.355957 256.852081 -25.279091
v 522.900574 257.376282 -26.776142
v 555.016541 231.544601 -4.552675
v 558.287415 234.723007 -5.714290
v 560.940613 238.296829 -7.243538
v 562.895569 242.157471 -9.093953
v 547.035034 226.745361 -3.461282
v 551.227356 228.858170 -3.793988
v 542.566956 225.270355 -3.564665
v 564.092773 246.187637 -11.209312
v 564.495911 250.264862 -13.525341
v 533.350708 224.392288 -5.053979
v 537.958801 224.477966 -4.100996
v 564.092773 254.265259 -15.971668
v 562.895569 258.067291 -18.473963
v 528.882629 225.015915 -6.394659
v 560.940613 261.555450 -20.956194
v 524.690247 226.329895 -8.082298
v 520.901123 228.294312 -10.065620
v 558.287415 264.623718 -23.342941
v 555.016541 267.178864 -25.561684
v 517.630249 230.849472 -12.284363
v 551.227356 269.143280 -27.545006
v 514.976990 233.917725 -14.671109
v 547.035034 270.457245 -29.232645
v 513.022095 237.405869 -17.153341
v 542.566956 271.080872 -30.573324
v 511.824860 241.207901 -19.655636
v 537.958801 270.995209 -31.526308
v 511.421722 245.208313 -22.101963
v 511.824860 249.285538 -24.417992
v 533.350708 270.202820 -32.062637
v 528.882629 268.727814 -32.166023
v 513.022095 253.315704 -26.533350
v 524.690247 266.614990 -31.833315
v 514.976990 257.176331 -28.383766
v 520.901123 263.928589 -31.074629
v 517.630249 260.750153 -29.913013
v 547.435364 238.741043 -10.446443
v 549.252502 240.506821 -11.091784
v 550.726501 242.492279 -11.941366
v 545.330261 237.248581 -10.024950
v 551.812561 244.637085 -12.969375
v 543.001160 236.074799 -9.840113
v 552.477661 246.876053 -14.144574
v 540.518921 235.255341 -9.897548
v 552.701660 249.141190 -15.431257
v 537.958801 234.815140 -10.195510
v 552.477661 251.363632 -16.790327
v 535.398743 234.767532 -10.724945
v 551.812561 253.475876 -18.180490
v 532.916504 235.113998 -11.469767
v 550.726501 255.413727 -19.559509
v 530.587402 235.843979 -12.407345
v 549.252502 257.118317 -20.885479
v 528.482300 236.935318 -13.509190
v 547.435364 258.537842 -22.118114
v 526.665161 238.354858 -14.741824
v 545.330261 259.629181 -23.219959
v 525.191162 240.059448 -16.067795
v 543.001160 260.359192 -24.157537
v 524.105103 241.997299 -17.446812
v 540.518921 260.705627 -24.902359
v 523.439941 244.109543 -18.836975
v 537.958801 260.658051 -25.431793
v 523.216003 246.331985 -20.196047
v 535.398743 260.217834 -25.729755
v 523.439941 248.597122 -21.482729
v 532.916504 259.398376 -25.787191
v 524.105103 250.836090 -22.657928
v 530.587402 258.224579 -25.602354
v 525.191162 252.980896 -23.685938
v 528.482300 256.732147 -25.180861
v 526.665161 254.966354 -24.535519
v 540.171326 265.005157 -41.686249
v 535.563232 264.212799 -42.222580
v 531.095093 262.737793 -42.325962
v 526.902771 260.624969 -41.993256
v 523.113586 257.938538 -41.234570
v 519.842712 254.760132 -40.072952
v 517.189514 251.186310 -38.543705
v 515.234619 247.325668 -36.693291
v 514.037354 243.295517 -34.577930
v 513.634216 239.218277 -32.261902
v 514.037354 235.217880 -29.815577
v 515.234619 231.415848 -27.313282
v 517.189514 227.927704 -24.831049
v 519.842712 224.859436 -22.444304
v 523.113586 222.304291 -20.225561
v 526.902771 220.339874 -18.242239
v 531.095093 219.025894 -16.554600
v 535.563232 218.402267 -15.213920
v 540.171326 218.487946 -14.260936
v 544.779419 219.280319 -13.724605
v 549.247559 220.755325 -13.621222
v 553.439880 222.868149 -13.953928
v 557.229065 225.554565 -14.712615
v 560.499939 228.732971 -15.874230
v 563.153137 232.306793 -17.403479
v 565.108032 236.167450 -19.253895
v 566.305298 240.197601 -21.369253
v 566.708435 244.274826 -23.685282
v 566.305298 248.275238 -26.131609
v 565.108032 252.077271 -28.633904
v 563.153137 255.565414 -31.116135
v 560.499939 258.633667 -33.502880
v 557.229065 261.188843 -35.721622
v 553.439880 263.153229 -37.704945
v 549.247559 264.467224 -39.392586
v 544.779419 265.090851 -40.733265
v 546.624451 237.197098 -65.224892
v 544.064392 236.756882 -65.522858
v 541.582092 235.937439 -65.580292
v 539.253052 234.763641 -65.395454
v 537.147949 233.271194 -64.973961
v 535.330811 231.505402 -64.328621
v 533.856812 229.519943 -63.479038
v 532.770691 227.375153 -62.451027
v 532.105591 225.136169 -61.275829
v 531.881592 222.871048 -59.989147
v 532.105591 220.648590 -58.630077
v 532.770691 218.536346 -57.239910
v 533.856812 216.598495 -55.860893
v 535.330811 214.893906 -54.534924
v 537.147949 213.474380 -53.302288
v 539.253052 212.383041 -52.200443
v 541.582092 211.653046 -51.262867
v 544.064392 211.306595 -50.518044
v 546.624451 211.354187 -49.988609
v 549.184509 211.794403 -49.690647
v 551.666809 212.613846 -49.633213
v 553.995850 213.787628 -49.818050
v 556.100952 215.280090 -50.239540
v 557.918152 217.045868 -50.884884
v 559.392151 219.031326 -51.734467
v 560.478210 221.176132 -52.762474
v 561.143311 223.415115 -53.937675
v 561.367310 225.680237 -55.224358
v 561.143311 227.902679 -56.583427
v 560.478210 230.014923 -57.973591
v 559.392151 231.952774 -59.352608
v 557.918152 233.657364 -60.678577
v 556.100952 235.076904 -61.911213
v 553.995850 236.168243 -63.013058
v 551.666809 236.898239 -63.950638
v 549.184509 237.244690 -64.695457
v 552.806702 229.752487 -18.150646
v 555.229553 232.106873 -19.011103
v 557.194885 234.754150 -20.143879
v 549.999878 227.762543 -17.588655
v 558.643005 237.613876 -21.514557
v 546.894470 226.197495 -17.342207
v 559.529785 240.599182 -23.081490
v 543.584778 225.104904 -17.418787
v 559.828430 243.619354 -24.797066
v 540.171326 224.517960 -17.816069
v 559.529785 246.582611 -26.609159
v 536.757935 224.454483 -18.521982
v 558.643005 249.398941 -28.462711
v 533.448181 224.916428 -19.515079
v 557.194885 251.982742 -30.301401
v 530.342773 225.889755 -20.765182
v 555.229553 254.255539 -32.069363
v 527.535950 227.344879 -22.234310
v 552.806702 256.148254 -33.712875
v 525.113098 229.237579 -23.877823
v 549.999878 257.603363 -35.182003
v 523.147766 231.510361 -25.645782
v 546.894470 258.576691 -36.432106
v 521.699707 234.094177 -27.484472
v 543.584778 259.038635 -37.425201
v 520.812866 236.910492 -29.338024
v 536.757935 258.388214 -38.528397
v 540.171326 258.975159 -38.131115
v 520.514221 239.873764 -31.150118
v 520.812866 242.893936 -32.865696
v 521.699707 245.879242 -34.432629
v 533.448181 257.295624 -38.604977
v 530.342773 255.730560 -38.358528
v 523.147766 248.738968 -35.803307
v 525.113098 251.386246 -36.936081
v 527.535950 253.740616 -37.796539
v 559.259827 212.281570 -47.783806
v 561.682678 214.635956 -48.644260
v 563.648010 217.283218 -49.777039
v 565.096130 220.142960 -51.147717
v 553.347595 208.726578 -46.975365
v 556.453003 210.291626 -47.221817
v 565.982971 223.128265 -52.714649
v 566.281555 226.148438 -54.430225
v 550.037903 207.633987 -47.051945
v 565.982971 229.111694 -56.242317
v 546.624451 207.047043 -47.449226
v 543.211060 206.983566 -48.155140
v 565.096130 231.928024 -58.095871
v 539.901306 207.445511 -49.148239
v 563.648010 234.511826 -59.934559
v 536.795898 208.418839 -50.398342
v 561.682678 236.784622 -61.702522
v 533.989136 209.873962 -51.867470
v 559.259827 238.677322 -63.346035
v 531.566223 211.766663 -53.510983
v 556.453003 240.132446 -64.815163
v 529.600891 214.039444 -55.278942
v 553.347595 241.105759 -66.065262
v 528.152832 216.623260 -57.117634
v 550.037903 241.567703 -67.058357
v 527.265991 219.439575 -58.971184
v 546.624451 241.504242 -67.764275
v 526.967346 222.402847 -60.783276
v 527.265991 225.423004 -62.498856
v 543.211060 240.917297 -68.161560
v 528.152832 228.408310 -64.065788
v 539.901306 239.824692 -68.238136
v 536.795898 238.259644 -67.991684
v 529.600891 231.268051 -65.436462
v 533.989136 236.269699 -67.429695
v 531.566223 233.915329 -66.569244
vn -0.184375 0.499169 0.846662
vn -0.184377 0.499169 0.846661
vn -0.184378 0.499168 0.846662
vn -0.184376 0.499169 0.846662
vn -0.184373 0.499170 0.846661
vn -0.184373 0.499170 0.846662
vn -0.184374 0.499169 0.846662
vn -0.184374 0.499170 0.846662
vn -0.184374 0.499169 0.846662
vn -0.184377 0.499168 0.846662
vn -0.184377 0.499170 0.846661
vn -0.184375 0.499171 0.846661
vn -0.184375 0.499170 0.846661
vn -0.184374 0.499171 0.846661
vn -0.184375 0.499170 0.846661
vn -0.184374 0.499171 0.846661
vn -0.184372 0.499171 0.846661
vn -0.184376 0.499168 0.846662
vn -0.184375 0.499168 0.846662
vn -0.184374 0.499169 0.846662
vn -0.184375 0.499167 0.846663
vn -0.184377 0.499168 0.846662
vn -0.184375 0.499167 0.846663
vn -0.184374 0.499170 0.846661
vn -0.184376 0.499168 0.846662
vn -0.184376 0.499168 0.846662
vn -0.184375 0.499172 0.846660
vn -0.184375 0.499166 0.846663
vn -0.184374 0.499170 0.846662
vn -0.184378 0.499169 0.846661
vn -0.184376 0.499167 0.846662
vn -0.184376 0.499167 0.846662
vn -0.184376 0.499169 0.846661
vn -0.184373 0.499169 0.846662
vn -0.184376 0.499169 0.846662
vn -0.184378 0.499169 0.846661
vn -0.184379 0.499169 0.846661
vn -0.184372 0.499168 0.846663
vn -0.184375 0.499166 0.846663
vn -0.184375 0.499171 0.846660
vn -0.184377 0.499171 0.846660
vn -0.184374 0.499171 0.846661
vn -0.184371 0.499167 0.846664
vn -0.184372 0.499169 0.846663
vn -0.184379 0.499167 0.846662
vn -0.184376 0.499169 0.846662
vn -0.184371 0.499166 0.846665
vn -0.184376 0.499170 0.846661
vn -0.184375 0.499170 0.846661
vn -0.184375 0.499171 0.846661
vn -0.184376 0.499169 0.846661
vn -0.184375 0.499170 0.846661
vn -0.184376 0.499170 0.846661
vn -0.184376 0.499168 0.846662
vn -0.184375 0.499169 0.846662
vn -0.184376 0.499170 0.846661
vn -0.184377 0.499170 0.846661
vn -0.184377 0.499170 0.846661
vn -0.184375 0.499169 0.846662
vn -0.184375 0.499169 0.846662
vn -0.184375 0.499169 0.846662
vn -0.184378 0.499167 0.846662
vn -0.184374 0.499170 0.846661
vn -0.184375 0.499169 0.846662
vn -0.184378 0.499168 0.846662
vn -0.184373 0.499170 0.846661
vn -0.184373 0.499171 0.846661
vn -0.184375 0.499170 0.846661
vn -0.184375 0.499170 0.846661
vn -0.184378 0.499168 0.846662
vn -0.184373 0.499167 0.846663
vn -0.184371 0.499170 0.846662
vn -0.184375 0.499169 0.846662
vn -0.184375 0.499169 0.846662
vn -0.184375 0.499169 0.846662
vn -0.184374 0.499171 0.846661
vn -0.184376 0.499169 0.846662
vn -0.184375 0.499170 0.846661
vn -0.184376 0.499170 0.846661
vn -0.184377 0.499168 0.846662
vn -0.184374 0.499170 0.846661
vn -0.184376 0.499169 0.846662
vn -0.184373 0.499170 0.846662
vn -0.184375 0.499169 0.846662
vn -0.184376 0.499168 0.846662
vn -0.184375 0.499169 0.846662
vn -0.184375 0.499171 0.846661
vn -0.184377 0.499168 0.846662
vn -0.184375 0.499169 0.846662
vn -0.184376 0.499169 0.846662
vn -0.184375 0.499169 0.846662
vn -0.184377 0.499167 0.846663
vn -0.184375 0.499171 0.846661
vn -0.184376 0.499169 0.846662
vn -0.184375 0.499170 0.846661
vn -0.184375 0.499170 0.846661
vn -0.184376 0.499169 0.846662
vn -0.184376 0.499169 0.846662
vn -0.184374 0.499167 0.846663
vn -0.184374 0.499166 0.846664
vn -0.184374 0.499168 0.846662
vn -0.184373 0.499169 0.846662
vn -0.184376 0.499170 0.846661
vn -0.184375 0.499168 0.846662
vn -0.184375 0.499169 0.846662
vn -0.184376 0.499169 0.846661
vn -0.184376 0.499170 0.846661
vn -0.184377 0.499170 0.846661
vn -0.184375 0.499169 0.846662
vn -0.184374 0.499166 0.846664
vn -0.184378 0.499171 0.846660
vn -0.184377 0.499169 0.846661
vn -0.184376 0.499167 0.846663
vn -0.184375 0.499168 0.846662
vn -0.184373 0.499166 0.846664
vn -0.184376 0.499169 0.846662
vn -0.184377 0.499170 0.846661
vn -0.184376 0.499169 0.846661
vn -0.184376 0.499169 0.846662
vn -0.184376 0.499170 0.846661
vn -0.184376 0.499170 0.846661
vn -0.184375 0.499169 0.846661
vn -0.184375 0.499169 0.846662
vn -0.184372 0.499170 0.846662
vn -0.184375 0.499168 0.846662
vn -0.184375 0.499169 0.846662
vn -0.184375 0.499169 0.846662
vn -0.184375 0.499169 0.846662
vn -0.184375 0.499168 0.846662
vn -0.184376 0.499168 0.846662
vn -0.184377 0.499168 0.846662
vn -0.184375 0.499169 0.846662
vn -0.184377 0.499168 0.846662
vn -0.184375 0.499169 0.846662
vn -0.184374 0.499170 0.846661
vn -0.184375 0.499169 0.846662
vn -0.184374 0.499170 0.846662
vn -0.184377 0.499168 0.846662
vn -0.184374 0.499169 0.846662
vn -0.184373 0.499171 0.846661
vn -0.184374 0.499169 0.846662
vn -0.184375 0.499171 0.846660
vn -0.184378 0.499170 0.846661
vn -0.184379 0.499168 0.846661
vn -0.184369 0.499161 0.846668
vn -0.184394 0.499184 0.846649
vn -0.184396 0.499182 0.846650
vn -0.184368 0.499162 0.846668
vn -0.184366 0.499164 0.846667
vn -0.184376 0.499170 0.846661
vn -0.184375 0.499167 0.846663
vn -0.184366 0.499165 0.846666
vn -0.184353 0.499126 0.846692
vn -0.184373 0.499171 0.846661
vn -0.184355 0.499168 0.846667
vn -0.184374 0.499169 0.846662
vn -0.184380 0.499189 0.846649
vn -0.184365 0.499121 0.846692
vn -0.184340 0.499170 0.846669
vn -0.184355 0.499169 0.846666
vn -0.184372 0.499170 0.846662
vn -0.184372 0.499191 0.846649
vn -0.184340 0.499174 0.846666
vn -0.184340 0.499174 0.846666
vn -0.184377 0.499169 0.846661
vn -0.184376 0.499177 0.846657
vn -0.184373 0.499177 0.846658
vn -0.184342 0.499181 0.846662
vn -0.184388 0.499162 0.846663
vn -0.184371 0.499186 0.846653
vn -0.184370 0.499186 0.846653
vn -0.184389 0.499164 0.846662
vn -0.184374 0.499173 0.846660
vn -0.184383 0.499153 0.846669
vn -0.184382 0.499163 0.846664
vn -0.184372 0.499171 0.846661
vn -0.184375 0.499167 0.846663
vn -0.184386 0.499154 0.846668
vn -0.184384 0.499165 0.846662
vn -0.184379 0.499169 0.846661
vn -0.184377 0.499168 0.846662
vn -0.184384 0.499160 0.846665
vn -0.184376 0.499167 0.846663
vn -0.184384 0.499154 0.846669
vn -0.184403 0.499150 0.846667
vn -0.184387 0.499163 0.846663
vn -0.184385 0.499154 0.846668
vn -0.184330 0.499246 0.846626
vn -0.184404 0.499151 0.846666
vn -0.184346 0.499185 0.846659
vn -0.184357 0.499253 0.846616
vn -0.184343 0.499177 0.846664
vn -0.184387 0.499111 0.846693
vn -0.184403 0.499161 0.846660
vn -0.184373 0.499110 0.846697
vn -0.184372 0.499202 0.846643
vn -0.184340 0.499179 0.846664
vn -0.184403 0.499163 0.846659
vn -0.184380 0.499202 0.846641
vn -0.184378 0.499193 0.846647
vn -0.184415 0.499164 0.846656
vn -0.184340 0.499170 0.846669
vn -0.184375 0.499152 0.846672
vn -0.184384 0.499192 0.846647
vn -0.184319 0.499165 0.846676
vn -0.184413 0.499172 0.846652
vn -0.184360 0.499141 0.846681
vn -0.184366 0.499155 0.846672
vn -0.184324 0.499155 0.846681
vn -0.184365 0.499165 0.846666
vn -0.184388 0.499193 0.846645
vn -0.184354 0.499145 0.846680
vn -0.184399 0.499184 0.846648
vn -0.184399 0.499184 0.846648
vn -0.184401 0.499181 0.846649
vn -0.184365 0.499166 0.846666
vn -0.085663 0.849990 -0.519788
vn -0.085658 0.849992 -0.519785
vn -0.254380 0.807842 -0.531678
vn -0.254383 0.807842 -0.531677
vn -0.415375 0.741146 -0.527415
vn -0.415371 0.741149 -0.527414
vn -0.563743 0.651933 -0.507126
vn -0.563745 0.651931 -0.507127
vn -0.694985 0.542911 -0.471428
vn -0.805110 0.417391 -0.421406
vn -0.694987 0.542908 -0.471428
vn -0.805103 0.417397 -0.421413
vn -0.890771 0.279187 -0.358583
vn -0.890771 0.279186 -0.358583
vn -0.949363 0.132512 -0.284868
vn -0.949366 0.132507 -0.284863
vn -0.979116 -0.018208 -0.202484
vn -0.979116 -0.018208 -0.202484
vn -0.979116 -0.168358 -0.113959
vn -0.979116 -0.168358 -0.113959
vn -0.949364 -0.313410 -0.021962
vn -0.949365 -0.313406 -0.021967
vn -0.890771 -0.448920 0.070688
vn -0.890771 -0.448920 0.070688
vn -0.805109 -0.570801 0.161200
vn -0.805103 -0.570807 0.161211
vn -0.694986 -0.675334 0.246817
vn -0.694984 -0.675336 0.246817
vn -0.563748 -0.759349 0.324927
vn -0.563742 -0.759353 0.324928
vn -0.415368 -0.820297 0.393170
vn -0.415373 -0.820294 0.393170
vn -0.254384 -0.856313 0.449463
vn -0.254380 -0.856314 0.449463
vn -0.085662 -0.866314 0.492100
vn -0.085662 -0.866314 0.492100
vn 0.085661 -0.849991 0.519786
vn 0.085663 -0.849991 0.519786
vn 0.254380 -0.807842 0.531679
vn 0.254383 -0.807842 0.531678
vn 0.415375 -0.741145 0.527416
vn 0.415373 -0.741147 0.527415
vn 0.563740 -0.651933 0.507128
vn 0.563742 -0.651933 0.507127
vn 0.694984 -0.542909 0.471431
vn 0.694984 -0.542909 0.471431
vn 0.805109 -0.417389 0.421410
vn 0.805109 -0.417389 0.421410
vn 0.890772 -0.279187 0.358579
vn 0.890766 -0.279195 0.358588
vn 0.949363 -0.132512 0.284868
vn 0.949368 -0.132503 0.284858
vn 0.979116 0.018210 0.202486
vn 0.979116 0.018210 0.202486
vn 0.979116 0.168359 0.113962
vn 0.979116 0.168359 0.113961
vn 0.949364 0.313409 0.021960
vn 0.949367 0.313401 0.021970
vn 0.890771 0.448920 -0.070689
vn 0.890768 0.448926 -0.070698
vn 0.805109 0.570801 -0.161201
vn 0.805108 0.570801 -0.161203
vn 0.694984 0.675337 -0.246816
vn 0.694986 0.675335 -0.246812
vn 0.563742 0.759353 -0.324928
vn 0.563738 0.759354 -0.324932
vn 0.415371 0.820295 -0.393171
vn 0.415376 0.820294 -0.393167
vn 0.254383 0.856314 -0.449462
vn 0.254380 0.856313 -0.449464
vn 0.085660 0.866314 -0.492101
vn 0.085664 0.866313 -0.492102
vn 0.085662 -0.849991 0.519786
vn 0.085663 -0.849991 0.519786
vn 0.254379 -0.807843 0.531678
vn 0.254389 -0.807840 0.531678
vn 0.415380 -0.741143 0.527414
vn 0.563740 -0.651935 0.507128
vn 0.415372 -0.741148 0.527415
vn 0.563736 -0.651937 0.507128
vn 0.694988 -0.542905 0.471429
vn 0.694989 -0.542905 0.471429
vn 0.805109 -0.417389 0.421408
vn 0.805109 -0.417390 0.421408
vn 0.890771 -0.279188 0.358583
vn 0.890762 -0.279207 0.358590
vn 0.949363 -0.132518 0.284868
vn 0.949368 -0.132498 0.284859
vn 0.979115 0.018198 0.202491
vn 0.979117 0.018217 0.202478
vn 0.979117 0.168349 0.113964
vn 0.979115 0.168369 0.113954
vn 0.949368 0.313396 0.021972
vn 0.949363 0.313413 0.021959
vn 0.890770 0.448922 -0.070693
vn 0.890762 0.448938 -0.070703
vn 0.805109 0.570801 -0.161202
vn 0.805109 0.570801 -0.161202
vn 0.694989 0.675333 -0.246812
vn 0.694986 0.675335 -0.246814
vn 0.563741 0.759353 -0.324929
vn 0.563741 0.759353 -0.324929
vn 0.415379 0.820293 -0.393167
vn 0.415366 0.820297 -0.393172
vn 0.254388 0.856312 -0.449462
vn 0.254378 0.856314 -0.449464
vn 0.085659 0.866313 -0.492101
vn 0.085664 0.866313 -0.492100
vn -0.085663 0.849990 -0.519786
vn -0.085656 0.849992 -0.519785
vn -0.254389 0.807840 -0.531678
vn -0.254379 0.807843 -0.531678
vn -0.415377 0.741145 -0.527415
vn -0.563742 0.651934 -0.507127
vn -0.415368 0.741150 -0.527415
vn -0.563743 0.651933 -0.507127
vn -0.694975 0.542918 -0.471433
vn -0.805109 0.417389 -0.421408
vn -0.694987 0.542908 -0.471429
vn -0.805109 0.417389 -0.421408
vn -0.890771 0.279188 -0.358583
vn -0.890771 0.279188 -0.358583
vn -0.949368 0.132497 -0.284858
vn -0.949368 0.132498 -0.284859
vn -0.979115 -0.018198 -0.202491
vn -0.979115 -0.018198 -0.202491
vn -0.979115 -0.168369 -0.113953
vn -0.979115 -0.168369 -0.113953
vn -0.949368 -0.313396 -0.021972
vn -0.949368 -0.313396 -0.021972
vn -0.890770 -0.448922 0.070692
vn -0.890770 -0.448922 0.070692
vn -0.805109 -0.570801 0.161202
vn -0.805109 -0.570801 0.161202
vn -0.694978 -0.675341 0.246820
vn -0.694986 -0.675334 0.246815
vn -0.563741 -0.759353 0.324930
vn -0.563741 -0.759353 0.324930
vn -0.415375 -0.820294 0.393169
vn -0.415379 -0.820293 0.393167
vn -0.254377 -0.856314 0.449465
vn -0.254379 -0.856314 0.449464
vn -0.085667 -0.866314 0.492100
vn -0.085664 -0.866313 0.492100
vn 0.184375 -0.499169 -0.846661
vn 0.184376 -0.499167 -0.846663
vn 0.184375 -0.499168 -0.846662
vn 0.184375 -0.499168 -0.846662
vn 0.184377 -0.499169 -0.846662
vn 0.184374 -0.499170 -0.846661
vn 0.184374 -0.499170 -0.846661
vn 0.184378 -0.499168 -0.846662
vn 0.184373 -0.499171 -0.846661
vn 0.184374 -0.499170 -0.846661
vn 0.184377 -0.499169 -0.846662
vn 0.184374 -0.499171 -0.846661
vn 0.184378 -0.499167 -0.846662
vn 0.184375 -0.499170 -0.846661
vn 0.184374 -0.499169 -0.846662
vn 0.184374 -0.499168 -0.846662
vn 0.184374 -0.499169 -0.846662
vn 0.184375 -0.499169 -0.846662
vn 0.184373 -0.499171 -0.846661
vn 0.184374 -0.499170 -0.846662
vn 0.184376 -0.499170 -0.846661
vn 0.184378 -0.499169 -0.846661
vn 0.184375 -0.499171 -0.846661
vn 0.184376 -0.499168 -0.846662
vn 0.184373 -0.499169 -0.846662
vn 0.184374 -0.499169 -0.846662
vn 0.184376 -0.499168 -0.846662
vn 0.184376 -0.499169 -0.846661
vn 0.184375 -0.499169 -0.846662
vn 0.184375 -0.499169 -0.846662
vn 0.184374 -0.499169 -0.846662
vn 0.184375 -0.499170 -0.846661
vn 0.184375 -0.499168 -0.846662
vn 0.184374 -0.499168 -0.846663
vn 0.184376 -0.499169 -0.846662
vn 0.184373 -0.499169 -0.846662
vn 0.184376 -0.499170 -0.846661
vn 0.184377 -0.499171 -0.846660
vn 0.184375 -0.499169 -0.846662
vn 0.184376 -0.499171 -0.846660
vn 0.184375 -0.499169 -0.846662
vn 0.184375 -0.499170 -0.846661
vn 0.184374 -0.499170 -0.846662
vn 0.184375 -0.499169 -0.846662
vn 0.184375 -0.499169 -0.846662
vn 0.184375 -0.499170 -0.846661
vn 0.184376 -0.499170 -0.846661
vn 0.184374 -0.499168 -0.846663
vn 0.184374 -0.499170 -0.846661
vn 0.184374 -0.499168 -0.846662
vn 0.184376 -0.499170 -0.846661
vn 0.184375 -0.499170 -0.846661
vn 0.184378 -0.499168 -0.846661
vn 0.184375 -0.499168 -0.846663
vn 0.184374 -0.499171 -0.846661
vn 0.184374 -0.499169 -0.846662
vn 0.184374 -0.499169 -0.846662
vn 0.184375 -0.499167 -0.846663
vn 0.184372 -0.499170 -0.846662
vn 0.184374 -0.499169 -0.846662
vn 0.184375 -0.499172 -0.846660
vn 0.184374 -0.499170 -0.846661
vn 0.184377 -0.499169 -0.846662
vn 0.184378 -0.499167 -0.846662
vn 0.184376 -0.499168 -0.846662
vn 0.184375 -0.499169 -0.846662
vn 0.184376 -0.499169 -0.846662
vn 0.184375 -0.499169 -0.846662
vn 0.184374 -0.499170 -0.846661
vn 0.184375 -0.499170 -0.846661
vn 0.184375 -0.499170 -0.846661
vn 0.184376 -0.499169 -0.846662
vn 0.184376 -0.499166 -0.846663
vn 0.184374 -0.499174 -0.846659
vn 0.184375 -0.499171 -0.846661
vn 0.184375 -0.499170 -0.846661
vn 0.184377 -0.499170 -0.846661
vn 0.184375 -0.499168 -0.846662
vn 0.184374 -0.499169 -0.846662
vn 0.184375 -0.499167 -0.846663
vn 0.184375 -0.499168 -0.846663
vn 0.184376 -0.499168 -0.846662
vn 0.184373 -0.499169 -0.846662
vn 0.184374 -0.499166 -0.846664
vn 0.184375 -0.499167 -0.846663
vn 0.184373 -0.499170 -0.846662
vn 0.184375 -0.499168 -0.846663
vn 0.184377 -0.499171 -0.846660
vn 0.184377 -0.499172 -0.846660
vn 0.184377 -0.499167 -0.846662
vn 0.184373 -0.499170 -0.846662
vn 0.184374 -0.499169 -0.846662
vn 0.184378 -0.499168 -0.846662
vn 0.184374 -0.499170 -0.846661
vn 0.184374 -0.499170 -0.846661
vn 0.184375 -0.499168 -0.846662
vn 0.184376 -0.499168 -0.846662
vn 0.184374 -0.499168 -0.846662
vn 0.184376 -0.499170 -0.846661
vn 0.184376 -0.499167 -0.846663
vn 0.184375 -0.499169 -0.846662
vn 0.184376 -0.499169 -0.846662
vn 0.184377 -0.499168 -0.846662
vn 0.184377 -0.499168 -0.846662
vn 0.184377 -0.499169 -0.846662
vn 0.184375 -0.499169 -0.846662
vn 0.184374 -0.499165 -0.846664
vn 0.184376 -0.499171 -0.846660
vn 0.184375 -0.499168 -0.846662
vn 0.184376 -0.499171 -0.846660
vn 0.184374 -0.499170 -0.846661
vn 0.184373 -0.499169 -0.846662
vn 0.184375 -0.499169 -0.846662
vn 0.184375 -0.499170 -0.846661
vn 0.184376 -0.499170 -0.846661
vn 0.184376 -0.499170 -0.846661
vn 0.184376 -0.499166 -0.846664
vn 0.184375 -0.499170 -0.846661
vn 0.184376 -0.499170 -0.846661
vn 0.184374 -0.499170 -0.846661
vn 0.184376 -0.499171 -0.846660
vn 0.184377 -0.499169 -0.846662
vn 0.184374 -0.499170 -0.846661
vn 0.184374 -0.499170 -0.846661
vn 0.184376 -0.499171 -0.846660
vn 0.184376 -0.499166 -0.846663
vn 0.184375 -0.499167 -0.846663
vn 0.184376 -0.499171 -0.846660
vn 0.184378 -0.499169 -0.846661
vn 0.184373 -0.499170 -0.846661
vn 0.184377 -0.499170 -0.846661
vn 0.184377 -0.499170 -0.846661
vn 0.184380 -0.499167 -0.846662
vn 0.184373 -0.499171 -0.846661
vn 0.184380 -0.499168 -0.846661
vn 0.184372 -0.499170 -0.846662
vn 0.184375 -0.499168 -0.846662
vn 0.184379 -0.499167 -0.846662
vn 0.184370 -0.499174 -0.846660
vn 0.184378 -0.499169 -0.846661
vn 0.184373 -0.499169 -0.846662
vn 0.184375 -0.499171 -0.846660
vn 0.184376 -0.499166 -0.846663
vn 0.184374 -0.499168 -0.846662
vn -0.085661 0.849991 -0.519786
vn -0.085661 0.849991 -0.519786
vn -0.254381 0.807842 -0.531678
vn -0.415376 0.741145 -0.527415
vn -0.254377 0.807843 -0.531678
vn -0.415378 0.741144 -0.527415
vn -0.563747 0.651929 -0.507127
vn -0.563739 0.651936 -0.507128
vn -0.694977 0.542916 -0.471432
vn -0.805110 0.417389 -0.421408
vn -0.694986 0.542907 -0.471430
vn -0.805109 0.417390 -0.421408
vn -0.890772 0.279185 -0.358581
vn -0.890773 0.279184 -0.358580
vn -0.949365 0.132507 -0.284863
vn -0.949365 0.132507 -0.284863
vn -0.979116 -0.018203 -0.202487
vn -0.979116 -0.018203 -0.202487
vn -0.979116 -0.168364 -0.113956
vn -0.979116 -0.168364 -0.113956
vn -0.949365 -0.313406 -0.021965
vn -0.949365 -0.313406 -0.021965
vn -0.890773 -0.448917 0.070688
vn -0.890773 -0.448917 0.070688
vn -0.805109 -0.570801 0.161203
vn -0.805109 -0.570801 0.161203
vn -0.694986 -0.675335 0.246814
vn -0.694977 -0.675342 0.246819
vn -0.563739 -0.759354 0.324930
vn -0.563748 -0.759349 0.324926
vn -0.415377 -0.820293 0.393168
vn -0.415377 -0.820293 0.393168
vn -0.254379 -0.856314 0.449464
vn -0.254379 -0.856314 0.449464
vn -0.085660 -0.866313 0.492101
vn -0.085660 -0.866313 0.492101
vn 0.085660 -0.849991 0.519786
vn 0.085660 -0.849991 0.519786
vn 0.254381 -0.807842 0.531678
vn 0.254381 -0.807842 0.531678
vn 0.415376 -0.741145 0.527415
vn 0.415375 -0.741146 0.527415
vn 0.563739 -0.651936 0.507127
vn 0.694988 -0.542906 0.471428
vn 0.563739 -0.651936 0.507128
vn 0.694988 -0.542906 0.471428
vn 0.805108 -0.417391 0.421409
vn 0.805109 -0.417390 0.421408
vn 0.890766 -0.279197 0.358586
vn 0.890766 -0.279198 0.358587
vn 0.949365 -0.132506 0.284865
vn 0.949370 -0.132493 0.284856
vn 0.979117 0.018217 0.202479
vn 0.979115 0.018203 0.202489
vn 0.979117 0.168351 0.113966
vn 0.979116 0.168364 0.113956
vn 0.949366 0.313404 0.021966
vn 0.949370 0.313392 0.021976
vn 0.890766 0.448930 -0.070698
vn 0.805110 0.570799 -0.161201
vn 0.890766 0.448930 -0.070698
vn 0.805110 0.570799 -0.161201
vn 0.694986 0.675335 -0.246814
vn 0.694988 0.675333 -0.246813
vn 0.563737 0.759355 -0.324932
vn 0.563740 0.759354 -0.324931
vn 0.415377 0.820293 -0.393168
vn 0.415373 0.820294 -0.393169
vn 0.254383 0.856313 -0.449463
vn 0.254383 0.856313 -0.449463
vn 0.085662 0.866313 -0.492101
vn 0.085658 0.866313 -0.492102
f 1//1 2//1 3//1
f 4//2 5//2 2//2
f 4//3 2//3 1//3
f 6//4 3//4 7//4
f 6//5 1//5 3//5
f 8//6 9//6 5//6
f 8//7 5//7 4//7
f 10//8 7//8 11//8
f 10//9 11//9 12//9
f 10//10 6//10 7//10
f 13//11 9//11 8//11
f 14//12 10//12 12//12
f 15//13 16//13 9//13
f 15//14 9//14 13//14
f 17//15 14//15 12//15
f 17//16 12//16 18//16
f 19//17 16//17 15//17
f 19//18 20//18 21//18
f 19//19 21//19 16//19
f 22//20 17//20 18//20
f 22//21 18//21 23//21
f 24//22 20//22 19//22
f 25//23 22//23 23//23
f 25//24 23//24 26//24
f 27//25 28//25 20//25
f 27//26 20//26 24//26
f 29//27 25//27 26//27
f 29//28 26//28 30//28
f 31//29 32//29 28//29
f 31//30 28//30 27//30
f 33//31 30//31 34//31
f 33//32 29//32 30//32
f 35//33 36//33 32//33
f 35//34 32//34 31//34
f 37//35 36//35 35//35
f 38//36 33//36 34//36
f 38//37 39//37 33//37
f 40//38 36//38 37//38
f 41//39 39//39 38//39
f 42//40 40//40 37//40
f 43//41 41//41 38//41
f 44//42 40//42 42//42
f 45//43 44//43 42//43
f 46//44 41//44 43//44
f 46//45 47//45 41//45
f 48//46 44//46 45//46
f 49//47 47//47 46//47
f 50//48 49//48 46//48
f 50//49 51//49 49//49
f 52//50 45//50 53//50
f 52//51 48//51 45//51
f 54//52 51//52 50//52
f 55//53 56//53 57//53
f 55//54 53//54 56//54
f 55//55 52//55 53//55
f 58//56 59//56 51//56
f 58//57 60//57 59//57
f 58//58 51//58 54//58
f 61//59 55//59 57//59
f 62//60 60//60 58//60
f 63//61 61//61 57//61
f 63//62 57//62 64//62
f 65//63 66//63 60//63
f 65//64 60//64 62//64
f 67//65 63//65 64//65
f 67//66 68//66 69//66
f 67//67 64//67 68//67
f 70//68 66//68 65//68
f 70//69 71//69 66//69
f 70//70 69//70 71//70
f 72//71 67//71 69//71
f 72//72 69//72 70//72
f 3//73 73//73 74//73
f 2//74 73//74 3//74
f 7//75 74//75 75//75
f 7//76 75//76 76//76
f 7//77 3//77 74//77
f 5//78 77//78 78//78
f 5//79 78//79 73//79
f 5//80 73//80 2//80
f 11//81 7//81 76//81
f 9//82 79//82 77//82
f 9//83 77//83 5//83
f 12//84 11//84 76//84
f 12//85 76//85 80//85
f 16//86 79//86 9//86
f 18//87 12//87 80//87
f 18//88 80//88 81//88
f 21//89 79//89 16//89
f 21//90 82//90 83//90
f 21//91 83//91 79//91
f 23//92 18//92 81//92
f 23//93 81//93 84//93
f 20//94 82//94 21//94
f 26//95 23//95 84//95
f 26//96 84//96 85//96
f 28//97 86//97 82//97
f 28//98 82//98 20//98
f 30//99 26//99 85//99
f 30//100 85//100 87//100
f 32//101 86//101 28//101
f 32//102 88//102 86//102
f 89//103 88//103 32//103
f 34//104 30//104 87//104
f 34//105 87//105 90//105
f 36//106 89//106 32//106
f 91//107 34//107 90//107
f 91//108 38//108 34//108
f 92//109 89//109 36//109
f 92//110 36//110 40//110
f 43//111 38//111 91//111
f 44//112 92//112 40//112
f 93//113 43//113 91//113
f 94//114 92//114 44//114
f 46//115 43//115 93//115
f 48//116 94//116 44//116
f 95//117 46//117 93//117
f 96//118 94//118 48//118
f 52//119 96//119 48//119
f 97//120 46//120 95//120
f 97//121 50//121 46//121
f 98//122 52//122 55//122
f 98//123 96//123 52//123
f 99//124 50//124 97//124
f 99//125 54//125 50//125
f 100//126 98//126 55//126
f 101//127 61//127 63//127
f 101//128 55//128 61//128
f 101//129 100//129 55//129
f 102//130 58//130 54//130
f 102//131 54//131 99//131
f 103//132 62//132 58//132
f 103//133 58//133 102//133
f 104//134 101//134 63//134
f 105//135 62//135 103//135
f 105//136 65//136 62//136
f 106//137 104//137 63//137
f 106//138 63//138 67//138
f 107//139 70//139 65//139
f 107//140 72//140 70//140
f 107//141 65//141 105//141
f 108//142 106//142 67//142
f 108//143 67//143 72//143
f 108//144 72//144 107//144
f 109//145 4//145 1//145
f 109//146 1//146 110//146
f 6//147 110//147 1//147
f 8//148 4//148 109//148
f 111//149 110//149 6//149
f 112//150 8//150 109//150
f 113//151 6//151 10//151
f 113//152 111//152 6//152
f 114//153 13//153 8//153
f 114//154 8//154 112//154
f 115//155 10//155 14//155
f 115//156 113//156 10//156
f 116//157 15//157 13//157
f 116//158 13//158 114//158
f 117//159 14//159 17//159
f 117//160 115//160 14//160
f 118//161 19//161 15//161
f 118//162 15//162 116//162
f 22//163 117//163 17//163
f 119//164 117//164 22//164
f 120//165 19//165 118//165
f 120//166 24//166 19//166
f 27//167 24//167 120//167
f 121//168 119//168 22//168
f 121//169 22//169 25//169
f 122//170 27//170 120//170
f 31//171 27//171 122//171
f 123//172 121//172 25//172
f 123//173 25//173 29//173
f 124//174 31//174 122//174
f 125//175 29//175 33//175
f 125//176 123//176 29//176
f 126//177 35//177 31//177
f 126//178 31//178 124//178
f 39//179 125//179 33//179
f 39//180 127//180 125//180
f 37//181 35//181 126//181
f 37//182 126//182 128//182
f 129//183 127//183 39//183
f 41//184 129//184 39//184
f 42//185 128//185 130//185
f 42//186 37//186 128//186
f 47//187 129//187 41//187
f 47//188 131//188 129//188
f 45//189 42//189 130//189
f 45//190 130//190 132//190
f 133//191 131//191 47//191
f 134//192 45//192 132//192
f 49//193 133//193 47//193
f 53//194 45//194 134//194
f 135//195 133//195 49//195
f 51//196 135//196 49//196
f 56//197 134//197 136//197
f 56//198 53//198 134//198
f 137//199 135//199 51//199
f 59//200 137//200 51//200
f 57//201 136//201 138//201
f 57//202 56//202 136//202
f 60//203 139//203 137//203
f 60//204 137//204 59//204
f 64//205 138//205 140//205
f 64//206 57//206 138//206
f 66//207 141//207 139//207
f 66//208 139//208 60//208
f 68//209 64//209 140//209
f 68//210 140//210 142//210
f 71//211 143//211 141//211
f 71//212 141//212 66//212
f 69//213 143//213 71//213
f 69//214 144//214 143//214
f 69//215 142//215 144//215
f 69//216 68//216 142//216
f 102//217 99//217 145//217
f 102//218 145//218 146//218
f 102//219 146//219 147//219
f 103//220 102//220 147//220
f 105//221 147//221 148//221
f 105//222 103//222 147//222
f 107//223 148//223 149//223
f 107//224 105//224 148//224
f 108//225 149//225 150//225
f 108//226 150//226 151//226
f 108//227 107//227 149//227
f 106//228 108//228 151//228
f 104//229 106//229 151//229
f 104//230 151//230 152//230
f 104//231 152//231 153//231
f 101//232 104//232 153//232
f 100//233 101//233 153//233
f 100//234 153//234 154//234
f 98//235 100//235 154//235
f 98//236 154//236 155//236
f 98//237 155//237 156//237
f 96//238 98//238 156//238
f 94//239 96//239 156//239
f 94//240 156//240 157//240
f 94//241 157//241 158//241
f 92//242 94//242 158//242
f 89//243 92//243 158//243
f 89//244 158//244 159//244
f 88//245 89//245 159//245
f 88//246 159//246 160//246
f 86//247 88//247 160//247
f 86//248 160//248 161//248
f 82//249 86//249 161//249
f 82//250 161//250 162//250
f 83//251 82//251 162//251
f 83//252 162//252 163//252
f 79//253 163//253 164//253
f 79//254 83//254 163//254
f 77//255 164//255 165//255
f 77//256 79//256 164//256
f 77//257 165//257 166//257
f 78//258 77//258 166//258
f 73//259 166//259 167//259
f 73//260 78//260 166//260
f 74//261 167//261 168//261
f 74//262 73//262 167//262
f 75//263 168//263 169//263
f 75//264 74//264 168//264
f 76//265 169//265 170//265
f 76//266 75//266 169//266
f 80//267 170//267 171//267
f 80//268 76//268 170//268
f 81//269 171//269 172//269
f 81//270 80//270 171//270
f 84//271 172//271 173//271
f 84//272 81//272 172//272
f 85//273 173//273 174//273
f 85//274 84//274 173//274
f 87//275 174//275 175//275
f 87//276 85//276 174//276
f 90//277 87//277 175//277
f 90//278 175//278 176//278
f 91//279 90//279 176//279
f 91//280 176//280 177//280
f 93//281 91//281 177//281
f 93//282 177//282 178//282
f 95//283 93//283 178//283
f 95//284 178//284 179//284
f 97//285 95//285 179//285
f 97//286 179//286 180//286
f 97//287 180//287 145//287
f 99//288 97//288 145//288
f 181//289 135//289 182//289
f 135//290 137//290 182//290
f 182//291 139//291 183//291
f 137//292 139//292 182//292
f 183//293 141//293 184//293
f 184//294 141//294 185//294
f 139//295 141//295 183//295
f 141//296 143//296 185//296
f 185//297 144//297 186//297
f 143//298 144//298 185//298
f 186//299 142//299 187//299
f 144//300 142//300 186//300
f 142//301 140//301 187//301
f 187//302 140//302 188//302
f 140//303 138//303 188//303
f 188//304 138//304 189//304
f 189//305 138//305 190//305
f 138//306 136//306 190//306
f 136//307 134//307 190//307
f 190//308 134//308 191//308
f 191//309 134//309 192//309
f 134//310 132//310 192//310
f 132//311 130//311 192//311
f 192//312 130//312 193//312
f 130//313 128//313 193//313
f 193//314 128//314 194//314
f 128//315 126//315 194//315
f 194//316 126//316 195//316
f 126//317 124//317 195//317
f 195//318 124//318 196//318
f 196//319 124//319 197//319
f 124//320 122//320 197//320
f 122//321 120//321 197//321
f 197//322 120//322 198//322
f 120//323 118//323 198//323
f 198//324 118//324 199//324
f 199//325 118//325 200//325
f 118//326 116//326 200//326
f 116//327 114//327 200//327
f 200//328 114//328 201//328
f 201//329 114//329 202//329
f 202//330 112//330 203//330
f 114//331 112//331 202//331
f 112//332 109//332 203//332
f 203//333 110//333 204//333
f 204//334 110//334 205//334
f 109//335 110//335 203//335
f 110//336 111//336 205//336
f 205//337 113//337 206//337
f 111//338 113//338 205//338
f 206//339 115//339 207//339
f 113//340 115//340 206//340
f 207//341 117//341 208//341
f 115//342 117//342 207//342
f 208//343 119//343 209//343
f 117//344 119//344 208//344
f 209//345 121//345 210//345
f 119//346 121//346 209//346
f 210//347 123//347 211//347
f 121//348 123//348 210//348
f 123//349 125//349 211//349
f 211//350 125//350 212//350
f 212//351 125//351 213//351
f 125//352 127//352 213//352
f 127//353 129//353 213//353
f 213//354 129//354 214//354
f 129//355 131//355 214//355
f 214//356 131//356 215//356
f 215//357 131//357 216//357
f 131//358 133//358 216//358
f 133//359 135//359 216//359
f 216//360 135//360 181//360
f 167//361 217//361 168//361
f 168//362 217//362 218//362
f 168//363 219//363 169//363
f 218//364 219//364 168//364
f 165//365 220//365 166//365
f 166//366 220//366 167//366
f 167//367 220//367 217//367
f 169//368 221//368 170//368
f 219//369 221//369 169//369
f 164//370 222//370 165//370
f 165//371 222//371 220//371
f 170//372 223//372 171//372
f 221//373 223//373 170//373
f 164//374 224//374 222//374
f 223//375 225//375 171//375
f 171//376 225//376 172//376
f 172//377 225//377 173//377
f 163//378 226//378 164//378
f 164//379 226//379 224//379
f 225//380 227//380 173//380
f 162//381 228//381 163//381
f 163//382 228//382 226//382
f 227//383 229//383 173//383
f 173//384 229//384 174//384
f 162//385 230//385 228//385
f 161//386 230//386 162//386
f 229//387 231//387 174//387
f 174//388 231//388 175//388
f 161//389 232//389 230//389
f 160//390 232//390 161//390
f 160//391 159//391 232//391
f 175//392 233//392 176//392
f 231//393 233//393 175//393
f 159//394 234//394 232//394
f 235//395 177//395 233//395
f 233//396 177//396 176//396
f 159//397 158//397 234//397
f 234//398 158//398 236//398
f 235//399 237//399 177//399
f 237//400 178//400 177//400
f 158//401 157//401 236//401
f 236//402 157//402 238//402
f 237//403 179//403 178//403
f 239//404 179//404 237//404
f 238//405 156//405 240//405
f 157//406 156//406 238//406
f 239//407 241//407 179//407
f 241//408 180//408 179//408
f 240//409 155//409 242//409
f 156//410 155//410 240//410
f 243//411 145//411 244//411
f 244//412 145//412 241//412
f 241//413 145//413 180//413
f 242//414 154//414 245//414
f 155//415 154//415 242//415
f 246//416 153//416 247//416
f 245//417 153//417 246//417
f 154//418 153//418 245//418
f 248//419 146//419 243//419
f 243//420 146//420 145//420
f 153//421 152//421 247//421
f 248//422 147//422 146//422
f 248//423 148//423 147//423
f 249//424 148//424 248//424
f 250//425 151//425 251//425
f 247//426 151//426 250//426
f 152//427 151//427 247//427
f 249//428 149//428 148//428
f 252//429 149//429 249//429
f 252//430 150//430 149//430
f 251//431 150//431 252//431
f 151//432 150//432 251//432
f 253//433 203//433 254//433
f 254//434 203//434 204//434
f 254//435 205//435 255//435
f 255//436 205//436 256//436
f 204//437 205//437 254//437
f 257//438 202//438 258//438
f 258//439 202//439 253//439
f 253//440 202//440 203//440
f 205//441 206//441 256//441
f 257//442 201//442 202//442
f 256//443 207//443 259//443
f 259//444 207//444 260//444
f 206//445 207//445 256//445
f 257//446 200//446 201//446
f 261//447 200//447 257//447
f 207//448 208//448 260//448
f 260//449 208//449 262//449
f 261//450 199//450 200//450
f 263//451 199//451 261//451
f 208//452 209//452 262//452
f 264//453 198//453 263//453
f 263//454 198//454 199//454
f 209//455 210//455 262//455
f 262//456 210//456 265//456
f 264//457 197//457 198//457
f 266//458 197//458 264//458
f 210//459 211//459 265//459
f 265//460 211//460 267//460
f 268//461 196//461 266//461
f 266//462 196//462 197//462
f 267//463 212//463 269//463
f 211//464 212//464 267//464
f 270//465 195//465 268//465
f 268//466 195//466 196//466
f 212//467 213//467 269//467
f 213//468 271//468 269//468
f 270//469 272//469 195//469
f 195//470 272//470 194//470
f 213//471 214//471 271//471
f 214//472 273//472 271//472
f 194//473 274//473 193//473
f 272//474 274//474 194//474
f 214//475 215//475 273//475
f 215//476 275//476 273//476
f 193//477 276//477 192//477
f 274//478 276//478 193//478
f 215//479 277//479 275//479
f 216//480 277//480 215//480
f 192//481 278//481 191//481
f 276//482 278//482 192//482
f 181//483 279//483 216//483
f 216//484 279//484 277//484
f 190//485 280//485 189//485
f 191//486 280//486 190//486
f 278//487 280//487 191//487
f 280//488 281//488 189//488
f 182//489 282//489 181//489
f 183//490 282//490 182//490
f 181//491 282//491 279//491
f 281//492 283//492 189//492
f 189//493 283//493 188//493
f 183//494 284//494 282//494
f 184//495 284//495 183//495
f 185//496 285//496 184//496
f 184//497 285//497 284//497
f 283//498 286//498 188//498
f 188//499 286//499 187//499
f 185//500 287//500 285//500
f 286//501 288//501 187//501
f 185//502 288//502 287//502
f 186//503 288//503 185//503
f 187//504 288//504 186//504
f 243//505 244//505 279//505
f 243//506 279//506 282//506
f 243//507 282//507 284//507
f 248//508 284//508 285//508
f 248//509 243//509 284//509
f 249//510 248//510 285//510
f 252//511 285//511 287//511
f 252//512 249//512 285//512
f 251//513 287//513 288//513
f 251//514 288//514 286//514
f 251//515 252//515 287//515
f 250//516 251//516 286//516
f 247//517 250//517 286//517
f 247//518 286//518 283//518
f 246//519 247//519 283//519
f 246//520 283//520 281//520
f 245//521 246//521 281//521
f 245//522 281//522 280//522
f 245//523 280//523 278//523
f 242//524 245//524 278//524
f 240//525 242//525 278//525
f 240//526 278//526 276//526
f 238//527 240//527 276//527
f 238//528 276//528 274//528
f 236//529 238//529 274//529
f 236//530 274//530 272//530
f 234//531 236//531 272//531
f 234//532 272//532 270//532
f 232//533 234//533 270//533
f 232//534 270//534 268//534
f 230//535 232//535 268//535
f 230//536 268//536 266//536
f 228//537 230//537 266//537
f 228//538 266//538 264//538
f 226//539 228//539 264//539
f 226//540 264//540 263//540
f 224//541 263//541 261//541
f 224//542 226//542 263//542
f 224//543 261//543 257//543
f 222//544 224//544 257//544
f 220//545 257//545 258//545
f 220//546 222//546 257//546
f 217//547 258//547 253//547
f 217//548 253//548 254//548
f 217//549 220//549 258//549
f 218//550 217//550 254//550
f 219//551 254//551 255//551
f 219//552 218//552 254//552
f 221//553 255//553 256//553
f 221//554 219//554 255//554
f 223//555 256//555 259//555
f 223//556 221//556 256//556
f 225//557 259//557 260//557
f 225//558 223//558 259//558
f 227//559 260//559 262//559
f 227//560 225//560 260//560
f 229//561 262//561 265//561
f 229//562 227//562 262//562
f 231//563 265//563 267//563
f 231//564 267//564 269//564
f 231//565 229//565 265//565
f 233//566 231//566 269//566
f 235//567 269//567 271//567
f 235//568 233//568 269//568
f 237//569 235//569 271//569
f 237//570 271//570 273//570
f 239//571 237//571 273//571
f 239//572 273//572 275//572
f 241//573 239//573 275//573
f 241//574 275//574 277//574
f 241//575 277//575 279//575
f 244//576 241//576 279//576
